<svg width="288" height="288" viewBox="0 0 288 288" fill="none" xmlns="http://www.w3.org/2000/svg">
<circle cx="144" cy="144" r="142" fill="#30323A" stroke="white" stroke-width="4"/>
<path d="M103.533 127.125V135.9C102.433 136.71 101.258 137.305 100.008 137.685C98.7683 138.055 97.4383 138.24 96.0183 138.24C94.2483 138.24 92.6433 137.965 91.2033 137.415C89.7733 136.865 88.5483 136.1 87.5283 135.12C86.5183 134.14 85.7383 132.97 85.1883 131.61C84.6383 130.25 84.3633 128.765 84.3633 127.155C84.3633 125.525 84.6283 124.03 85.1583 122.67C85.6883 121.31 86.4383 120.14 87.4083 119.16C88.3883 118.18 89.5733 117.42 90.9633 116.88C92.3533 116.34 93.9133 116.07 95.6433 116.07C96.5233 116.07 97.3433 116.14 98.1033 116.28C98.8733 116.42 99.5833 116.615 100.233 116.865C100.893 117.105 101.493 117.4 102.033 117.75C102.573 118.1 103.068 118.485 103.518 118.905L102.363 120.735C102.183 121.025 101.948 121.205 101.658 121.275C101.368 121.335 101.053 121.26 100.713 121.05C100.383 120.86 100.053 120.67 99.7233 120.48C99.3933 120.29 99.0233 120.125 98.6133 119.985C98.2133 119.845 97.7583 119.73 97.2483 119.64C96.7483 119.55 96.1683 119.505 95.5083 119.505C94.4383 119.505 93.4683 119.685 92.5983 120.045C91.7383 120.405 91.0033 120.92 90.3933 121.59C89.7833 122.26 89.3133 123.065 88.9833 124.005C88.6533 124.945 88.4883 125.995 88.4883 127.155C88.4883 128.395 88.6633 129.505 89.0133 130.485C89.3733 131.455 89.8733 132.28 90.5133 132.96C91.1633 133.63 91.9433 134.145 92.8533 134.505C93.7633 134.855 94.7783 135.03 95.8983 135.03C96.6983 135.03 97.4133 134.945 98.0433 134.775C98.6733 134.605 99.2883 134.375 99.8883 134.085V130.155H97.1583C96.8983 130.155 96.6933 130.085 96.5433 129.945C96.4033 129.795 96.3333 129.615 96.3333 129.405V127.125H103.533ZM116.575 128.535C116.575 128.055 116.505 127.605 116.365 127.185C116.235 126.755 116.035 126.38 115.765 126.06C115.495 125.74 115.15 125.49 114.73 125.31C114.32 125.12 113.84 125.025 113.29 125.025C112.22 125.025 111.375 125.33 110.755 125.94C110.145 126.55 109.755 127.415 109.585 128.535H116.575ZM109.51 130.77C109.57 131.56 109.71 132.245 109.93 132.825C110.15 133.395 110.44 133.87 110.8 134.25C111.16 134.62 111.585 134.9 112.075 135.09C112.575 135.27 113.125 135.36 113.725 135.36C114.325 135.36 114.84 135.29 115.27 135.15C115.71 135.01 116.09 134.855 116.41 134.685C116.74 134.515 117.025 134.36 117.265 134.22C117.515 134.08 117.755 134.01 117.985 134.01C118.295 134.01 118.525 134.125 118.675 134.355L119.74 135.705C119.33 136.185 118.87 136.59 118.36 136.92C117.85 137.24 117.315 137.5 116.755 137.7C116.205 137.89 115.64 138.025 115.06 138.105C114.49 138.185 113.935 138.225 113.395 138.225C112.325 138.225 111.33 138.05 110.41 137.7C109.49 137.34 108.69 136.815 108.01 136.125C107.33 135.425 106.795 134.565 106.405 133.545C106.015 132.515 105.82 131.325 105.82 129.975C105.82 128.925 105.99 127.94 106.33 127.02C106.67 126.09 107.155 125.285 107.785 124.605C108.425 123.915 109.2 123.37 110.11 122.97C111.03 122.57 112.065 122.37 113.215 122.37C114.185 122.37 115.08 122.525 115.9 122.835C116.72 123.145 117.425 123.6 118.015 124.2C118.605 124.79 119.065 125.52 119.395 126.39C119.735 127.25 119.905 128.235 119.905 129.345C119.905 129.905 119.845 130.285 119.725 130.485C119.605 130.675 119.375 130.77 119.035 130.77H109.51ZM126.18 125.28C126.66 124.36 127.23 123.64 127.89 123.12C128.55 122.59 129.33 122.325 130.23 122.325C130.94 122.325 131.51 122.48 131.94 122.79L131.7 125.565C131.65 125.745 131.575 125.875 131.475 125.955C131.385 126.025 131.26 126.06 131.1 126.06C130.95 126.06 130.725 126.035 130.425 125.985C130.135 125.935 129.85 125.91 129.57 125.91C129.16 125.91 128.795 125.97 128.475 126.09C128.155 126.21 127.865 126.385 127.605 126.615C127.355 126.835 127.13 127.105 126.93 127.425C126.74 127.745 126.56 128.11 126.39 128.52V138H122.685V122.61H124.86C125.24 122.61 125.505 122.68 125.655 122.82C125.805 122.95 125.905 123.19 125.955 123.54L126.18 125.28ZM133.877 138V122.61H136.142C136.622 122.61 136.937 122.835 137.087 123.285L137.327 124.425C137.597 124.125 137.877 123.85 138.167 123.6C138.467 123.35 138.782 123.135 139.112 122.955C139.452 122.775 139.812 122.635 140.192 122.535C140.582 122.425 141.007 122.37 141.467 122.37C142.437 122.37 143.232 122.635 143.852 123.165C144.482 123.685 144.952 124.38 145.262 125.25C145.502 124.74 145.802 124.305 146.162 123.945C146.522 123.575 146.917 123.275 147.347 123.045C147.777 122.815 148.232 122.645 148.712 122.535C149.202 122.425 149.692 122.37 150.182 122.37C151.032 122.37 151.787 122.5 152.447 122.76C153.107 123.02 153.662 123.4 154.112 123.9C154.562 124.4 154.902 125.01 155.132 125.73C155.372 126.45 155.492 127.275 155.492 128.205V138H151.787V128.205C151.787 127.225 151.572 126.49 151.142 126C150.712 125.5 150.082 125.25 149.252 125.25C148.872 125.25 148.517 125.315 148.187 125.445C147.867 125.575 147.582 125.765 147.332 126.015C147.092 126.255 146.902 126.56 146.762 126.93C146.622 127.3 146.552 127.725 146.552 128.205V138H142.832V128.205C142.832 127.175 142.622 126.425 142.202 125.955C141.792 125.485 141.187 125.25 140.387 125.25C139.847 125.25 139.342 125.385 138.872 125.655C138.412 125.915 137.982 126.275 137.582 126.735V138H133.877ZM167.144 131.43C166.074 131.48 165.174 131.575 164.444 131.715C163.714 131.845 163.129 132.015 162.689 132.225C162.249 132.435 161.934 132.68 161.744 132.96C161.554 133.24 161.459 133.545 161.459 133.875C161.459 134.525 161.649 134.99 162.029 135.27C162.419 135.55 162.924 135.69 163.544 135.69C164.304 135.69 164.959 135.555 165.509 135.285C166.069 135.005 166.614 134.585 167.144 134.025V131.43ZM158.654 124.755C160.424 123.135 162.554 122.325 165.044 122.325C165.944 122.325 166.749 122.475 167.459 122.775C168.169 123.065 168.769 123.475 169.259 124.005C169.749 124.525 170.119 125.15 170.369 125.88C170.629 126.61 170.759 127.41 170.759 128.28V138H169.079C168.729 138 168.459 137.95 168.269 137.85C168.079 137.74 167.929 137.525 167.819 137.205L167.489 136.095C167.099 136.445 166.719 136.755 166.349 137.025C165.979 137.285 165.594 137.505 165.194 137.685C164.794 137.865 164.364 138 163.904 138.09C163.454 138.19 162.954 138.24 162.404 138.24C161.754 138.24 161.154 138.155 160.604 137.985C160.054 137.805 159.579 137.54 159.179 137.19C158.779 136.84 158.469 136.405 158.249 135.885C158.029 135.365 157.919 134.76 157.919 134.07C157.919 133.68 157.984 133.295 158.114 132.915C158.244 132.525 158.454 132.155 158.744 131.805C159.044 131.455 159.429 131.125 159.899 130.815C160.369 130.505 160.944 130.235 161.624 130.005C162.314 129.775 163.114 129.59 164.024 129.45C164.934 129.3 165.974 129.21 167.144 129.18V128.28C167.144 127.25 166.924 126.49 166.484 126C166.044 125.5 165.409 125.25 164.579 125.25C163.979 125.25 163.479 125.32 163.079 125.46C162.689 125.6 162.344 125.76 162.044 125.94C161.744 126.11 161.469 126.265 161.219 126.405C160.979 126.545 160.709 126.615 160.409 126.615C160.149 126.615 159.929 126.55 159.749 126.42C159.569 126.28 159.424 126.12 159.314 125.94L158.654 124.755ZM177.713 124.5C178.023 124.19 178.348 123.905 178.688 123.645C179.038 123.375 179.403 123.15 179.783 122.97C180.173 122.78 180.588 122.635 181.028 122.535C181.468 122.425 181.948 122.37 182.468 122.37C183.308 122.37 184.053 122.515 184.703 122.805C185.353 123.085 185.893 123.485 186.323 124.005C186.763 124.515 187.093 125.13 187.313 125.85C187.543 126.56 187.658 127.345 187.658 128.205V138H183.953V128.205C183.953 127.265 183.738 126.54 183.308 126.03C182.878 125.51 182.223 125.25 181.343 125.25C180.703 125.25 180.103 125.395 179.543 125.685C178.983 125.975 178.453 126.37 177.953 126.87V138H174.248V122.61H176.513C176.993 122.61 177.308 122.835 177.458 123.285L177.713 124.5ZM204.751 122.61L196.366 142.23C196.256 142.49 196.111 142.685 195.931 142.815C195.761 142.955 195.496 143.025 195.136 143.025H192.376L195.256 136.845L189.031 122.61H192.286C192.576 122.61 192.801 122.68 192.961 122.82C193.131 122.96 193.256 123.12 193.336 123.3L196.606 131.28C196.716 131.55 196.806 131.82 196.876 132.09C196.956 132.36 197.031 132.635 197.101 132.915C197.191 132.635 197.281 132.36 197.371 132.09C197.461 131.81 197.561 131.535 197.671 131.265L200.761 123.3C200.841 123.1 200.971 122.935 201.151 122.805C201.341 122.675 201.551 122.61 201.781 122.61H204.751ZM125.463 170.55C125.863 170.55 126.178 170.665 126.408 170.895C126.648 171.115 126.768 171.41 126.768 171.78V174H111.888V172.77C111.888 172.52 111.938 172.26 112.038 171.99C112.148 171.71 112.318 171.46 112.548 171.24L119.133 164.64C119.683 164.08 120.173 163.545 120.603 163.035C121.043 162.525 121.408 162.02 121.698 161.52C121.988 161.02 122.208 160.515 122.358 160.005C122.518 159.485 122.598 158.94 122.598 158.37C122.598 157.85 122.523 157.395 122.373 157.005C122.223 156.605 122.008 156.27 121.728 156C121.458 155.73 121.128 155.53 120.738 155.4C120.358 155.26 119.928 155.19 119.448 155.19C119.008 155.19 118.598 155.255 118.218 155.385C117.848 155.505 117.518 155.68 117.228 155.91C116.938 156.13 116.693 156.39 116.493 156.69C116.293 156.99 116.143 157.32 116.043 157.68C115.873 158.14 115.653 158.445 115.383 158.595C115.113 158.745 114.723 158.78 114.213 158.7L112.263 158.355C112.413 157.315 112.703 156.405 113.133 155.625C113.563 154.835 114.098 154.18 114.738 153.66C115.388 153.13 116.128 152.735 116.958 152.475C117.798 152.205 118.698 152.07 119.658 152.07C120.658 152.07 121.573 152.22 122.403 152.52C123.233 152.81 123.943 153.225 124.533 153.765C125.123 154.305 125.583 154.955 125.913 155.715C126.243 156.475 126.408 157.32 126.408 158.25C126.408 159.05 126.288 159.79 126.048 160.47C125.818 161.15 125.503 161.8 125.103 162.42C124.713 163.04 124.253 163.64 123.723 164.22C123.193 164.8 122.638 165.39 122.058 165.99L117.168 170.985C117.638 170.845 118.103 170.74 118.563 170.67C119.033 170.59 119.478 170.55 119.898 170.55H125.463ZM129.44 171.96C129.44 171.65 129.495 171.355 129.605 171.075C129.725 170.795 129.885 170.555 130.085 170.355C130.285 170.155 130.525 169.995 130.805 169.875C131.085 169.755 131.385 169.695 131.705 169.695C132.025 169.695 132.32 169.755 132.59 169.875C132.87 169.995 133.11 170.155 133.31 170.355C133.52 170.555 133.685 170.795 133.805 171.075C133.925 171.355 133.985 171.65 133.985 171.96C133.985 172.28 133.925 172.58 133.805 172.86C133.685 173.13 133.52 173.365 133.31 173.565C133.11 173.765 132.87 173.92 132.59 174.03C132.32 174.15 132.025 174.21 131.705 174.21C131.385 174.21 131.085 174.15 130.805 174.03C130.525 173.92 130.285 173.765 130.085 173.565C129.885 173.365 129.725 173.13 129.605 172.86C129.495 172.58 129.44 172.28 129.44 171.96ZM149.985 170.55C150.385 170.55 150.7 170.665 150.93 170.895C151.17 171.115 151.29 171.41 151.29 171.78V174H136.41V172.77C136.41 172.52 136.46 172.26 136.56 171.99C136.67 171.71 136.84 171.46 137.07 171.24L143.655 164.64C144.205 164.08 144.695 163.545 145.125 163.035C145.565 162.525 145.93 162.02 146.22 161.52C146.51 161.02 146.73 160.515 146.88 160.005C147.04 159.485 147.12 158.94 147.12 158.37C147.12 157.85 147.045 157.395 146.895 157.005C146.745 156.605 146.53 156.27 146.25 156C145.98 155.73 145.65 155.53 145.26 155.4C144.88 155.26 144.45 155.19 143.97 155.19C143.53 155.19 143.12 155.255 142.74 155.385C142.37 155.505 142.04 155.68 141.75 155.91C141.46 156.13 141.215 156.39 141.015 156.69C140.815 156.99 140.665 157.32 140.565 157.68C140.395 158.14 140.175 158.445 139.905 158.595C139.635 158.745 139.245 158.78 138.735 158.7L136.785 158.355C136.935 157.315 137.225 156.405 137.655 155.625C138.085 154.835 138.62 154.18 139.26 153.66C139.91 153.13 140.65 152.735 141.48 152.475C142.32 152.205 143.22 152.07 144.18 152.07C145.18 152.07 146.095 152.22 146.925 152.52C147.755 152.81 148.465 153.225 149.055 153.765C149.645 154.305 150.105 154.955 150.435 155.715C150.765 156.475 150.93 157.32 150.93 158.25C150.93 159.05 150.81 159.79 150.57 160.47C150.34 161.15 150.025 161.8 149.625 162.42C149.235 163.04 148.775 163.64 148.245 164.22C147.715 164.8 147.16 165.39 146.58 165.99L141.69 170.985C142.16 170.845 142.625 170.74 143.085 170.67C143.555 170.59 144 170.55 144.42 170.55H149.985ZM163.847 157.56C163.847 158.38 163.707 159.12 163.427 159.78C163.157 160.44 162.792 161.005 162.332 161.475C161.872 161.935 161.337 162.29 160.727 162.54C160.117 162.79 159.482 162.915 158.822 162.915C158.102 162.915 157.437 162.79 156.827 162.54C156.217 162.29 155.687 161.935 155.237 161.475C154.797 161.005 154.452 160.44 154.202 159.78C153.952 159.12 153.827 158.38 153.827 157.56C153.827 156.72 153.952 155.96 154.202 155.28C154.452 154.6 154.797 154.025 155.237 153.555C155.687 153.085 156.217 152.725 156.827 152.475C157.437 152.215 158.102 152.085 158.822 152.085C159.542 152.085 160.207 152.215 160.817 152.475C161.437 152.725 161.972 153.085 162.422 153.555C162.872 154.025 163.222 154.6 163.472 155.28C163.722 155.96 163.847 156.72 163.847 157.56ZM160.997 157.56C160.997 156.98 160.937 156.495 160.817 156.105C160.707 155.715 160.552 155.4 160.352 155.16C160.162 154.92 159.932 154.75 159.662 154.65C159.402 154.54 159.122 154.485 158.822 154.485C158.522 154.485 158.242 154.54 157.982 154.65C157.722 154.75 157.497 154.92 157.307 155.16C157.127 155.4 156.982 155.715 156.872 156.105C156.762 156.495 156.707 156.98 156.707 157.56C156.707 158.12 156.762 158.59 156.872 158.97C156.982 159.34 157.127 159.64 157.307 159.87C157.497 160.1 157.722 160.265 157.982 160.365C158.242 160.465 158.522 160.515 158.822 160.515C159.122 160.515 159.402 160.465 159.662 160.365C159.932 160.265 160.162 160.1 160.352 159.87C160.552 159.64 160.707 159.34 160.817 158.97C160.937 158.59 160.997 158.12 160.997 157.56ZM171.062 152.895C171.192 152.745 171.342 152.61 171.512 152.49C171.692 152.37 171.942 152.31 172.262 152.31H174.962L158.852 173.445C158.722 173.605 158.567 173.74 158.387 173.85C158.207 173.95 157.987 174 157.727 174H154.967L171.062 152.895ZM176.102 168.9C176.102 169.72 175.962 170.46 175.682 171.12C175.412 171.78 175.047 172.345 174.587 172.815C174.127 173.275 173.592 173.635 172.982 173.895C172.372 174.145 171.737 174.27 171.077 174.27C170.357 174.27 169.692 174.145 169.082 173.895C168.472 173.635 167.942 173.275 167.492 172.815C167.052 172.345 166.707 171.78 166.457 171.12C166.207 170.46 166.082 169.72 166.082 168.9C166.082 168.06 166.207 167.3 166.457 166.62C166.707 165.94 167.052 165.365 167.492 164.895C167.942 164.425 168.472 164.065 169.082 163.815C169.692 163.555 170.357 163.425 171.077 163.425C171.797 163.425 172.462 163.555 173.072 163.815C173.692 164.065 174.222 164.425 174.662 164.895C175.112 165.365 175.462 165.94 175.712 166.62C175.972 167.3 176.102 168.06 176.102 168.9ZM173.237 168.9C173.237 168.32 173.182 167.835 173.072 167.445C172.962 167.055 172.807 166.74 172.607 166.5C172.417 166.26 172.187 166.09 171.917 165.99C171.657 165.88 171.377 165.825 171.077 165.825C170.777 165.825 170.497 165.88 170.237 165.99C169.977 166.09 169.752 166.26 169.562 166.5C169.372 166.74 169.222 167.055 169.112 167.445C169.012 167.835 168.962 168.32 168.962 168.9C168.962 169.46 169.012 169.93 169.112 170.31C169.222 170.69 169.372 170.995 169.562 171.225C169.752 171.455 169.977 171.62 170.237 171.72C170.497 171.82 170.777 171.87 171.077 171.87C171.377 171.87 171.657 171.82 171.917 171.72C172.187 171.62 172.417 171.455 172.607 171.225C172.807 170.995 172.962 170.69 173.072 170.31C173.182 169.93 173.237 169.46 173.237 168.9Z" fill="white"/>
</svg>
