<svg width="283" height="307" viewBox="0 0 283 307" fill="none" xmlns="http://www.w3.org/2000/svg">
<g clip-path="url(#clip0_32_13)">
<path d="M254.638 98.6548H28.3619C12.7234 98.6548 0 112.457 0 129.421V177.578C0 194.543 12.7234 208.346 28.3619 208.346H254.639C270.277 208.346 283.001 194.543 283.001 177.578V129.421C283 112.457 270.277 98.6548 254.638 98.6548ZM264.503 177.578C264.503 183.479 260.078 188.28 254.638 188.28H28.3619C22.9224 188.28 18.4973 183.479 18.4973 177.578V129.421C18.4973 123.521 22.923 118.72 28.3619 118.72H254.639C260.078 118.72 264.504 123.521 264.504 129.421V177.578H264.503Z" fill="#E2684A"/>
<path d="M63.7889 170.2L53.361 152.741L63.3671 135.348C63.7894 134.629 63.9702 133.975 63.9702 133.321C63.9702 130.575 60.5349 128.482 57.8823 128.482C56.5569 128.482 55.6521 129.005 55.049 130.183L47.0322 145.354L39.0159 130.183C38.4128 129.006 37.5091 128.482 36.1825 128.482C33.53 128.482 30.0947 130.575 30.0947 133.321C30.0947 133.975 30.2755 134.629 30.6978 135.348L40.7039 152.741L30.276 170.2C29.914 170.854 29.7332 171.442 29.7332 172.031C29.7332 174.842 33.4106 177.066 36.0018 177.066C36.9663 177.066 37.8109 176.739 38.2321 176.019L47.0322 159.804L55.8323 176.019C56.1943 176.738 57.0986 177.066 58.0625 177.066C60.6543 177.066 64.3316 174.842 64.3316 172.031C64.3316 171.443 64.1504 170.854 63.7889 170.2Z" fill="#E2684A"/>
<path d="M93.6846 128.875C92.1784 128.875 91.5754 129.529 90.9723 130.771L82.594 147.576L74.1554 130.771C73.4927 129.529 72.9499 128.875 71.4431 128.875C68.8514 128.875 65.0535 130.641 65.0535 133.06C65.0535 133.256 65.0535 133.518 65.1746 133.779L77.6514 156.207C77.7725 156.403 77.893 156.73 77.893 157.122V173.535C77.893 175.627 80.2438 176.673 82.594 176.673C84.9448 176.673 87.2961 175.627 87.2961 173.535V157.122C87.2961 156.73 87.4166 156.403 87.5371 156.207L99.9548 133.779C100.075 133.517 100.075 133.256 100.075 133.06C100.075 130.64 96.2769 128.875 93.6846 128.875Z" fill="#E2684A"/>
<path d="M129.308 167.781H112.913L129.91 135.153C130.573 133.845 130.934 132.603 130.934 131.556C130.934 129.987 130.031 128.875 128.223 128.875H104.956C102.967 128.875 102.123 131.164 102.123 133.321C102.123 135.675 103.147 137.768 104.956 137.768H118.941L101.943 170.396C101.28 171.639 100.918 172.946 100.918 173.993C100.918 175.562 101.702 176.674 103.631 176.674H129.308C131.117 176.674 132.142 174.32 132.142 172.228C132.14 170.135 131.115 167.781 129.308 167.781Z" fill="#E2684A"/>
<path d="M172.146 128.875C163.828 128.875 157.378 133.06 157.378 144.307V161.634C157.378 172.881 163.828 177.066 172.146 177.066C180.464 177.066 186.975 172.881 186.975 161.634V144.307C186.975 133.059 180.464 128.875 172.146 128.875ZM177.571 161.634C177.571 166.146 175.522 168.173 172.146 168.173C168.771 168.173 166.782 166.146 166.782 161.634V144.307C166.782 139.794 168.771 137.768 172.146 137.768C175.521 137.768 177.571 139.794 177.571 144.307V161.634Z" fill="#E2684A"/>
<path d="M206.442 128.875C198.124 128.875 191.674 133.06 191.674 144.307V161.634C191.674 172.881 198.124 177.066 206.442 177.066C214.76 177.066 221.27 172.881 221.27 161.634V144.307C221.27 133.059 214.76 128.875 206.442 128.875ZM211.867 161.634C211.867 166.146 209.817 168.173 206.442 168.173C203.066 168.173 201.077 166.146 201.077 161.634V144.307C201.077 139.794 203.067 137.768 206.442 137.768C209.817 137.768 211.867 139.794 211.867 144.307V161.634Z" fill="#E2684A"/>
<path d="M240.737 128.875C232.419 128.875 225.969 133.06 225.969 144.307V161.634C225.969 172.881 232.419 177.066 240.737 177.066C249.055 177.066 255.566 172.881 255.566 161.634V144.307C255.566 133.059 249.055 128.875 240.737 128.875ZM246.162 161.634C246.162 166.146 244.113 168.173 240.737 168.173C237.362 168.173 235.373 166.146 235.373 161.634V144.307C235.373 139.794 237.362 137.768 240.737 137.768C244.112 137.768 246.162 139.794 246.162 144.307V161.634Z" fill="#E2684A"/>
</g>
<defs>
<clipPath id="clip0_32_13">
<rect width="283" height="307" fill="white"/>
</clipPath>
</defs>
</svg>
