<svg width="288" height="288" viewBox="0 0 288 288" fill="none" xmlns="http://www.w3.org/2000/svg">
<circle cx="144" cy="144" r="142" fill="#30323A" stroke="white" stroke-width="4"/>
<path d="M111.564 132.885C111.784 132.885 111.979 132.97 112.149 133.14L113.739 134.865C112.859 135.955 111.774 136.79 110.484 137.37C109.204 137.95 107.664 138.24 105.864 138.24C104.254 138.24 102.804 137.965 101.514 137.415C100.234 136.865 99.1389 136.1 98.2289 135.12C97.3189 134.14 96.6189 132.97 96.1289 131.61C95.6489 130.25 95.4089 128.765 95.4089 127.155C95.4089 125.525 95.6689 124.035 96.1889 122.685C96.7089 121.325 97.4389 120.155 98.3789 119.175C99.3289 118.195 100.459 117.435 101.769 116.895C103.079 116.345 104.529 116.07 106.119 116.07C107.699 116.07 109.099 116.33 110.319 116.85C111.549 117.37 112.594 118.05 113.454 118.89L112.104 120.765C112.024 120.885 111.919 120.99 111.789 121.08C111.669 121.17 111.499 121.215 111.279 121.215C111.129 121.215 110.974 121.175 110.814 121.095C110.654 121.005 110.479 120.9 110.289 120.78C110.099 120.65 109.879 120.51 109.629 120.36C109.379 120.21 109.089 120.075 108.759 119.955C108.429 119.825 108.044 119.72 107.604 119.64C107.174 119.55 106.674 119.505 106.104 119.505C105.134 119.505 104.244 119.68 103.434 120.03C102.634 120.37 101.944 120.87 101.364 121.53C100.784 122.18 100.334 122.98 100.014 123.93C99.6939 124.87 99.5339 125.945 99.5339 127.155C99.5339 128.375 99.7039 129.46 100.044 130.41C100.394 131.36 100.864 132.16 101.454 132.81C102.044 133.46 102.739 133.96 103.539 134.31C104.339 134.65 105.199 134.82 106.119 134.82C106.669 134.82 107.164 134.79 107.604 134.73C108.054 134.67 108.464 134.575 108.834 134.445C109.214 134.315 109.569 134.15 109.899 133.95C110.239 133.74 110.574 133.485 110.904 133.185C111.004 133.095 111.109 133.025 111.219 132.975C111.329 132.915 111.444 132.885 111.564 132.885ZM124.048 131.43C122.978 131.48 122.078 131.575 121.348 131.715C120.618 131.845 120.033 132.015 119.593 132.225C119.153 132.435 118.838 132.68 118.648 132.96C118.458 133.24 118.363 133.545 118.363 133.875C118.363 134.525 118.553 134.99 118.933 135.27C119.323 135.55 119.828 135.69 120.448 135.69C121.208 135.69 121.863 135.555 122.413 135.285C122.973 135.005 123.518 134.585 124.048 134.025V131.43ZM115.558 124.755C117.328 123.135 119.458 122.325 121.948 122.325C122.848 122.325 123.653 122.475 124.363 122.775C125.073 123.065 125.673 123.475 126.163 124.005C126.653 124.525 127.023 125.15 127.273 125.88C127.533 126.61 127.663 127.41 127.663 128.28V138H125.983C125.633 138 125.363 137.95 125.173 137.85C124.983 137.74 124.833 137.525 124.723 137.205L124.393 136.095C124.003 136.445 123.623 136.755 123.253 137.025C122.883 137.285 122.498 137.505 122.098 137.685C121.698 137.865 121.268 138 120.808 138.09C120.358 138.19 119.858 138.24 119.308 138.24C118.658 138.24 118.058 138.155 117.508 137.985C116.958 137.805 116.483 137.54 116.083 137.19C115.683 136.84 115.373 136.405 115.153 135.885C114.933 135.365 114.823 134.76 114.823 134.07C114.823 133.68 114.888 133.295 115.018 132.915C115.148 132.525 115.358 132.155 115.648 131.805C115.948 131.455 116.333 131.125 116.803 130.815C117.273 130.505 117.848 130.235 118.528 130.005C119.218 129.775 120.018 129.59 120.928 129.45C121.838 129.3 122.878 129.21 124.048 129.18V128.28C124.048 127.25 123.828 126.49 123.388 126C122.948 125.5 122.313 125.25 121.483 125.25C120.883 125.25 120.383 125.32 119.983 125.46C119.593 125.6 119.248 125.76 118.948 125.94C118.648 126.11 118.373 126.265 118.123 126.405C117.883 126.545 117.613 126.615 117.313 126.615C117.053 126.615 116.833 126.55 116.653 126.42C116.473 126.28 116.328 126.12 116.218 125.94L115.558 124.755ZM134.617 124.5C134.927 124.19 135.252 123.905 135.592 123.645C135.942 123.375 136.307 123.15 136.687 122.97C137.077 122.78 137.492 122.635 137.932 122.535C138.372 122.425 138.852 122.37 139.372 122.37C140.212 122.37 140.957 122.515 141.607 122.805C142.257 123.085 142.797 123.485 143.227 124.005C143.667 124.515 143.997 125.13 144.217 125.85C144.447 126.56 144.562 127.345 144.562 128.205V138H140.857V128.205C140.857 127.265 140.642 126.54 140.212 126.03C139.782 125.51 139.127 125.25 138.247 125.25C137.607 125.25 137.007 125.395 136.447 125.685C135.887 125.975 135.357 126.37 134.857 126.87V138H131.152V122.61H133.417C133.897 122.61 134.212 122.835 134.362 123.285L134.617 124.5ZM156.216 131.43C155.146 131.48 154.246 131.575 153.516 131.715C152.786 131.845 152.201 132.015 151.761 132.225C151.321 132.435 151.006 132.68 150.816 132.96C150.626 133.24 150.531 133.545 150.531 133.875C150.531 134.525 150.721 134.99 151.101 135.27C151.491 135.55 151.996 135.69 152.616 135.69C153.376 135.69 154.031 135.555 154.581 135.285C155.141 135.005 155.686 134.585 156.216 134.025V131.43ZM147.726 124.755C149.496 123.135 151.626 122.325 154.116 122.325C155.016 122.325 155.821 122.475 156.531 122.775C157.241 123.065 157.841 123.475 158.331 124.005C158.821 124.525 159.191 125.15 159.441 125.88C159.701 126.61 159.831 127.41 159.831 128.28V138H158.151C157.801 138 157.531 137.95 157.341 137.85C157.151 137.74 157.001 137.525 156.891 137.205L156.561 136.095C156.171 136.445 155.791 136.755 155.421 137.025C155.051 137.285 154.666 137.505 154.266 137.685C153.866 137.865 153.436 138 152.976 138.09C152.526 138.19 152.026 138.24 151.476 138.24C150.826 138.24 150.226 138.155 149.676 137.985C149.126 137.805 148.651 137.54 148.251 137.19C147.851 136.84 147.541 136.405 147.321 135.885C147.101 135.365 146.991 134.76 146.991 134.07C146.991 133.68 147.056 133.295 147.186 132.915C147.316 132.525 147.526 132.155 147.816 131.805C148.116 131.455 148.501 131.125 148.971 130.815C149.441 130.505 150.016 130.235 150.696 130.005C151.386 129.775 152.186 129.59 153.096 129.45C154.006 129.3 155.046 129.21 156.216 129.18V128.28C156.216 127.25 155.996 126.49 155.556 126C155.116 125.5 154.481 125.25 153.651 125.25C153.051 125.25 152.551 125.32 152.151 125.46C151.761 125.6 151.416 125.76 151.116 125.94C150.816 126.11 150.541 126.265 150.291 126.405C150.051 126.545 149.781 126.615 149.481 126.615C149.221 126.615 149.001 126.55 148.821 126.42C148.641 126.28 148.496 126.12 148.386 125.94L147.726 124.755ZM172.98 126.54C172.56 126.03 172.1 125.67 171.6 125.46C171.11 125.25 170.58 125.145 170.01 125.145C169.45 125.145 168.945 125.25 168.495 125.46C168.045 125.67 167.66 125.99 167.34 126.42C167.02 126.84 166.775 127.38 166.605 128.04C166.435 128.69 166.35 129.46 166.35 130.35C166.35 131.25 166.42 132.015 166.56 132.645C166.71 133.265 166.92 133.775 167.19 134.175C167.46 134.565 167.79 134.85 168.18 135.03C168.57 135.2 169.005 135.285 169.485 135.285C170.255 135.285 170.91 135.125 171.45 134.805C171.99 134.485 172.5 134.03 172.98 133.44V126.54ZM176.685 115.71V138H174.42C173.93 138 173.62 137.775 173.49 137.325L173.175 135.84C172.555 136.55 171.84 137.125 171.03 137.565C170.23 138.005 169.295 138.225 168.225 138.225C167.385 138.225 166.615 138.05 165.915 137.7C165.215 137.35 164.61 136.845 164.1 136.185C163.6 135.515 163.21 134.69 162.93 133.71C162.66 132.73 162.525 131.61 162.525 130.35C162.525 129.21 162.68 128.15 162.99 127.17C163.3 126.19 163.745 125.34 164.325 124.62C164.905 123.9 165.6 123.34 166.41 122.94C167.22 122.53 168.13 122.325 169.14 122.325C170 122.325 170.735 122.46 171.345 122.73C171.955 123 172.5 123.365 172.98 123.825V115.71H176.685ZM188.472 131.43C187.402 131.48 186.502 131.575 185.772 131.715C185.042 131.845 184.457 132.015 184.017 132.225C183.577 132.435 183.262 132.68 183.072 132.96C182.882 133.24 182.787 133.545 182.787 133.875C182.787 134.525 182.977 134.99 183.357 135.27C183.747 135.55 184.252 135.69 184.872 135.69C185.632 135.69 186.287 135.555 186.837 135.285C187.397 135.005 187.942 134.585 188.472 134.025V131.43ZM179.982 124.755C181.752 123.135 183.882 122.325 186.372 122.325C187.272 122.325 188.077 122.475 188.787 122.775C189.497 123.065 190.097 123.475 190.587 124.005C191.077 124.525 191.447 125.15 191.697 125.88C191.957 126.61 192.087 127.41 192.087 128.28V138H190.407C190.057 138 189.787 137.95 189.597 137.85C189.407 137.74 189.257 137.525 189.147 137.205L188.817 136.095C188.427 136.445 188.047 136.755 187.677 137.025C187.307 137.285 186.922 137.505 186.522 137.685C186.122 137.865 185.692 138 185.232 138.09C184.782 138.19 184.282 138.24 183.732 138.24C183.082 138.24 182.482 138.155 181.932 137.985C181.382 137.805 180.907 137.54 180.507 137.19C180.107 136.84 179.797 136.405 179.577 135.885C179.357 135.365 179.247 134.76 179.247 134.07C179.247 133.68 179.312 133.295 179.442 132.915C179.572 132.525 179.782 132.155 180.072 131.805C180.372 131.455 180.757 131.125 181.227 130.815C181.697 130.505 182.272 130.235 182.952 130.005C183.642 129.775 184.442 129.59 185.352 129.45C186.262 129.3 187.302 129.21 188.472 129.18V128.28C188.472 127.25 188.252 126.49 187.812 126C187.372 125.5 186.737 125.25 185.907 125.25C185.307 125.25 184.807 125.32 184.407 125.46C184.017 125.6 183.672 125.76 183.372 125.94C183.072 126.11 182.797 126.265 182.547 126.405C182.307 126.545 182.037 126.615 181.737 126.615C181.477 126.615 181.257 126.55 181.077 126.42C180.897 126.28 180.752 126.12 180.642 125.94L179.982 124.755ZM126.273 171.225V174H114.273V171.225H118.668V158.58C118.668 158.08 118.683 157.565 118.713 157.035L115.593 159.645C115.413 159.785 115.233 159.875 115.053 159.915C114.883 159.945 114.718 159.945 114.558 159.915C114.408 159.885 114.273 159.835 114.153 159.765C114.033 159.685 113.943 159.6 113.883 159.51L112.713 157.905L119.328 152.28H122.373V171.225H126.273ZM129.44 171.96C129.44 171.65 129.495 171.355 129.605 171.075C129.725 170.795 129.885 170.555 130.085 170.355C130.285 170.155 130.525 169.995 130.805 169.875C131.085 169.755 131.385 169.695 131.705 169.695C132.025 169.695 132.32 169.755 132.59 169.875C132.87 169.995 133.11 170.155 133.31 170.355C133.52 170.555 133.685 170.795 133.805 171.075C133.925 171.355 133.985 171.65 133.985 171.96C133.985 172.28 133.925 172.58 133.805 172.86C133.685 173.13 133.52 173.365 133.31 173.565C133.11 173.765 132.87 173.92 132.59 174.03C132.32 174.15 132.025 174.21 131.705 174.21C131.385 174.21 131.085 174.15 130.805 174.03C130.525 173.92 130.285 173.765 130.085 173.565C129.885 173.365 129.725 173.13 129.605 172.86C129.495 172.58 129.44 172.28 129.44 171.96ZM140.22 158.82C140.22 160.03 140.53 160.955 141.15 161.595C141.78 162.225 142.67 162.54 143.82 162.54C144.42 162.54 144.955 162.445 145.425 162.255C145.895 162.065 146.29 161.805 146.61 161.475C146.93 161.145 147.17 160.755 147.33 160.305C147.5 159.855 147.585 159.37 147.585 158.85C147.585 158.26 147.495 157.735 147.315 157.275C147.135 156.805 146.88 156.41 146.55 156.09C146.22 155.77 145.825 155.525 145.365 155.355C144.915 155.185 144.42 155.1 143.88 155.1C143.32 155.1 142.815 155.195 142.365 155.385C141.915 155.565 141.53 155.82 141.21 156.15C140.89 156.48 140.645 156.875 140.475 157.335C140.305 157.785 140.22 158.28 140.22 158.82ZM145.14 165.585C145.31 165.375 145.47 165.17 145.62 164.97C145.77 164.77 145.915 164.57 146.055 164.37C145.555 164.69 145.005 164.935 144.405 165.105C143.805 165.265 143.175 165.345 142.515 165.345C141.765 165.345 141.03 165.215 140.31 164.955C139.59 164.695 138.95 164.305 138.39 163.785C137.83 163.255 137.375 162.605 137.025 161.835C136.685 161.055 136.515 160.145 136.515 159.105C136.515 158.135 136.695 157.225 137.055 156.375C137.415 155.525 137.92 154.78 138.57 154.14C139.22 153.5 140 152.995 140.91 152.625C141.82 152.255 142.825 152.07 143.925 152.07C145.035 152.07 146.03 152.245 146.91 152.595C147.8 152.945 148.555 153.435 149.175 154.065C149.805 154.695 150.285 155.45 150.615 156.33C150.955 157.21 151.125 158.175 151.125 159.225C151.125 159.895 151.065 160.53 150.945 161.13C150.835 161.73 150.675 162.31 150.465 162.87C150.255 163.42 150 163.96 149.7 164.49C149.4 165.02 149.065 165.545 148.695 166.065L143.73 173.145C143.56 173.385 143.305 173.59 142.965 173.76C142.625 173.92 142.24 174 141.81 174H138.405L145.14 165.585ZM163.847 157.56C163.847 158.38 163.707 159.12 163.427 159.78C163.157 160.44 162.792 161.005 162.332 161.475C161.872 161.935 161.337 162.29 160.727 162.54C160.117 162.79 159.482 162.915 158.822 162.915C158.102 162.915 157.437 162.79 156.827 162.54C156.217 162.29 155.687 161.935 155.237 161.475C154.797 161.005 154.452 160.44 154.202 159.78C153.952 159.12 153.827 158.38 153.827 157.56C153.827 156.72 153.952 155.96 154.202 155.28C154.452 154.6 154.797 154.025 155.237 153.555C155.687 153.085 156.217 152.725 156.827 152.475C157.437 152.215 158.102 152.085 158.822 152.085C159.542 152.085 160.207 152.215 160.817 152.475C161.437 152.725 161.972 153.085 162.422 153.555C162.872 154.025 163.222 154.6 163.472 155.28C163.722 155.96 163.847 156.72 163.847 157.56ZM160.997 157.56C160.997 156.98 160.937 156.495 160.817 156.105C160.707 155.715 160.552 155.4 160.352 155.16C160.162 154.92 159.932 154.75 159.662 154.65C159.402 154.54 159.122 154.485 158.822 154.485C158.522 154.485 158.242 154.54 157.982 154.65C157.722 154.75 157.497 154.92 157.307 155.16C157.127 155.4 156.982 155.715 156.872 156.105C156.762 156.495 156.707 156.98 156.707 157.56C156.707 158.12 156.762 158.59 156.872 158.97C156.982 159.34 157.127 159.64 157.307 159.87C157.497 160.1 157.722 160.265 157.982 160.365C158.242 160.465 158.522 160.515 158.822 160.515C159.122 160.515 159.402 160.465 159.662 160.365C159.932 160.265 160.162 160.1 160.352 159.87C160.552 159.64 160.707 159.34 160.817 158.97C160.937 158.59 160.997 158.12 160.997 157.56ZM171.062 152.895C171.192 152.745 171.342 152.61 171.512 152.49C171.692 152.37 171.942 152.31 172.262 152.31H174.962L158.852 173.445C158.722 173.605 158.567 173.74 158.387 173.85C158.207 173.95 157.987 174 157.727 174H154.967L171.062 152.895ZM176.102 168.9C176.102 169.72 175.962 170.46 175.682 171.12C175.412 171.78 175.047 172.345 174.587 172.815C174.127 173.275 173.592 173.635 172.982 173.895C172.372 174.145 171.737 174.27 171.077 174.27C170.357 174.27 169.692 174.145 169.082 173.895C168.472 173.635 167.942 173.275 167.492 172.815C167.052 172.345 166.707 171.78 166.457 171.12C166.207 170.46 166.082 169.72 166.082 168.9C166.082 168.06 166.207 167.3 166.457 166.62C166.707 165.94 167.052 165.365 167.492 164.895C167.942 164.425 168.472 164.065 169.082 163.815C169.692 163.555 170.357 163.425 171.077 163.425C171.797 163.425 172.462 163.555 173.072 163.815C173.692 164.065 174.222 164.425 174.662 164.895C175.112 165.365 175.462 165.94 175.712 166.62C175.972 167.3 176.102 168.06 176.102 168.9ZM173.237 168.9C173.237 168.32 173.182 167.835 173.072 167.445C172.962 167.055 172.807 166.74 172.607 166.5C172.417 166.26 172.187 166.09 171.917 165.99C171.657 165.88 171.377 165.825 171.077 165.825C170.777 165.825 170.497 165.88 170.237 165.99C169.977 166.09 169.752 166.26 169.562 166.5C169.372 166.74 169.222 167.055 169.112 167.445C169.012 167.835 168.962 168.32 168.962 168.9C168.962 169.46 169.012 169.93 169.112 170.31C169.222 170.69 169.372 170.995 169.562 171.225C169.752 171.455 169.977 171.62 170.237 171.72C170.497 171.82 170.777 171.87 171.077 171.87C171.377 171.87 171.657 171.82 171.917 171.72C172.187 171.62 172.417 171.455 172.607 171.225C172.807 170.995 172.962 170.69 173.072 170.31C173.182 169.93 173.237 169.46 173.237 168.9Z" fill="white"/>
</svg>
