<svg width="288" height="288" viewBox="0 0 288 288" fill="none" xmlns="http://www.w3.org/2000/svg">
<circle cx="144" cy="144" r="142" fill="#30323A" stroke="white" stroke-width="4"/>
<path d="M125.584 134.745C126.364 134.745 127.059 134.615 127.669 134.355C128.289 134.095 128.809 133.73 129.229 133.26C129.649 132.79 129.969 132.22 130.189 131.55C130.419 130.88 130.534 130.13 130.534 129.3V116.31H134.569V129.3C134.569 130.59 134.359 131.785 133.939 132.885C133.529 133.975 132.934 134.92 132.154 135.72C131.384 136.51 130.444 137.13 129.334 137.58C128.224 138.02 126.974 138.24 125.584 138.24C124.184 138.24 122.929 138.02 121.819 137.58C120.709 137.13 119.764 136.51 118.984 135.72C118.214 134.92 117.619 133.975 117.199 132.885C116.789 131.785 116.584 130.59 116.584 129.3V116.31H120.619V129.285C120.619 130.115 120.729 130.865 120.949 131.535C121.179 132.205 121.504 132.78 121.924 133.26C122.354 133.73 122.874 134.095 123.484 134.355C124.104 134.615 124.804 134.745 125.584 134.745ZM150.67 120.255C150.55 120.465 150.42 120.62 150.28 120.72C150.15 120.81 149.985 120.855 149.785 120.855C149.575 120.855 149.345 120.78 149.095 120.63C148.855 120.47 148.565 120.295 148.225 120.105C147.885 119.915 147.485 119.745 147.025 119.595C146.575 119.435 146.04 119.355 145.42 119.355C144.86 119.355 144.37 119.425 143.95 119.565C143.53 119.695 143.175 119.88 142.885 120.12C142.605 120.36 142.395 120.65 142.255 120.99C142.115 121.32 142.045 121.685 142.045 122.085C142.045 122.595 142.185 123.02 142.465 123.36C142.755 123.7 143.135 123.99 143.605 124.23C144.075 124.47 144.61 124.685 145.21 124.875C145.81 125.065 146.425 125.27 147.055 125.49C147.685 125.7 148.3 125.95 148.9 126.24C149.5 126.52 150.035 126.88 150.505 127.32C150.975 127.75 151.35 128.28 151.63 128.91C151.92 129.54 152.065 130.305 152.065 131.205C152.065 132.185 151.895 133.105 151.555 133.965C151.225 134.815 150.735 135.56 150.085 136.2C149.445 136.83 148.66 137.33 147.73 137.7C146.8 138.06 145.735 138.24 144.535 138.24C143.845 138.24 143.165 138.17 142.495 138.03C141.825 137.9 141.18 137.71 140.56 137.46C139.95 137.21 139.375 136.91 138.835 136.56C138.295 136.21 137.815 135.82 137.395 135.39L138.58 133.455C138.68 133.315 138.81 133.2 138.97 133.11C139.13 133.01 139.3 132.96 139.48 132.96C139.73 132.96 140 133.065 140.29 133.275C140.58 133.475 140.925 133.7 141.325 133.95C141.725 134.2 142.19 134.43 142.72 134.64C143.26 134.84 143.905 134.94 144.655 134.94C145.805 134.94 146.695 134.67 147.325 134.13C147.955 133.58 148.27 132.795 148.27 131.775C148.27 131.205 148.125 130.74 147.835 130.38C147.555 130.02 147.18 129.72 146.71 129.48C146.24 129.23 145.705 129.02 145.105 128.85C144.505 128.68 143.895 128.495 143.275 128.295C142.655 128.095 142.045 127.855 141.445 127.575C140.845 127.295 140.31 126.93 139.84 126.48C139.37 126.03 138.99 125.47 138.7 124.8C138.42 124.12 138.28 123.285 138.28 122.295C138.28 121.505 138.435 120.735 138.745 119.985C139.065 119.235 139.525 118.57 140.125 117.99C140.725 117.41 141.465 116.945 142.345 116.595C143.225 116.245 144.235 116.07 145.375 116.07C146.655 116.07 147.835 116.27 148.915 116.67C149.995 117.07 150.915 117.63 151.675 118.35L150.67 120.255ZM166.605 129.81L163.965 122.595C163.835 122.275 163.7 121.895 163.56 121.455C163.42 121.015 163.28 120.54 163.14 120.03C163.01 120.54 162.875 121.02 162.735 121.47C162.595 121.91 162.46 122.295 162.33 122.625L159.705 129.81H166.605ZM173.73 138H170.61C170.26 138 169.975 137.915 169.755 137.745C169.535 137.565 169.37 137.345 169.26 137.085L167.64 132.66H158.655L157.035 137.085C156.955 137.315 156.8 137.525 156.57 137.715C156.34 137.905 156.055 138 155.715 138H152.565L161.1 116.31H165.21L173.73 138ZM139.389 152.31V153.915C139.389 154.395 139.339 154.785 139.239 155.085C139.139 155.375 139.039 155.62 138.939 155.82L130.719 172.74C130.549 173.09 130.309 173.39 129.999 173.64C129.689 173.88 129.274 174 128.754 174H126.069L134.454 157.425C134.644 157.085 134.829 156.775 135.009 156.495C135.199 156.205 135.409 155.93 135.639 155.67H125.259C125.029 155.67 124.829 155.585 124.659 155.415C124.489 155.245 124.404 155.045 124.404 154.815V152.31H139.389ZM151.586 157.56C151.586 158.38 151.446 159.12 151.166 159.78C150.896 160.44 150.531 161.005 150.071 161.475C149.611 161.935 149.076 162.29 148.466 162.54C147.856 162.79 147.221 162.915 146.561 162.915C145.841 162.915 145.176 162.79 144.566 162.54C143.956 162.29 143.426 161.935 142.976 161.475C142.536 161.005 142.191 160.44 141.941 159.78C141.691 159.12 141.566 158.38 141.566 157.56C141.566 156.72 141.691 155.96 141.941 155.28C142.191 154.6 142.536 154.025 142.976 153.555C143.426 153.085 143.956 152.725 144.566 152.475C145.176 152.215 145.841 152.085 146.561 152.085C147.281 152.085 147.946 152.215 148.556 152.475C149.176 152.725 149.711 153.085 150.161 153.555C150.611 154.025 150.961 154.6 151.211 155.28C151.461 155.96 151.586 156.72 151.586 157.56ZM148.736 157.56C148.736 156.98 148.676 156.495 148.556 156.105C148.446 155.715 148.291 155.4 148.091 155.16C147.901 154.92 147.671 154.75 147.401 154.65C147.141 154.54 146.861 154.485 146.561 154.485C146.261 154.485 145.981 154.54 145.721 154.65C145.461 154.75 145.236 154.92 145.046 155.16C144.866 155.4 144.721 155.715 144.611 156.105C144.501 156.495 144.446 156.98 144.446 157.56C144.446 158.12 144.501 158.59 144.611 158.97C144.721 159.34 144.866 159.64 145.046 159.87C145.236 160.1 145.461 160.265 145.721 160.365C145.981 160.465 146.261 160.515 146.561 160.515C146.861 160.515 147.141 160.465 147.401 160.365C147.671 160.265 147.901 160.1 148.091 159.87C148.291 159.64 148.446 159.34 148.556 158.97C148.676 158.59 148.736 158.12 148.736 157.56ZM158.801 152.895C158.931 152.745 159.081 152.61 159.251 152.49C159.431 152.37 159.681 152.31 160.001 152.31H162.701L146.591 173.445C146.461 173.605 146.306 173.74 146.126 173.85C145.946 173.95 145.726 174 145.466 174H142.706L158.801 152.895ZM163.841 168.9C163.841 169.72 163.701 170.46 163.421 171.12C163.151 171.78 162.786 172.345 162.326 172.815C161.866 173.275 161.331 173.635 160.721 173.895C160.111 174.145 159.476 174.27 158.816 174.27C158.096 174.27 157.431 174.145 156.821 173.895C156.211 173.635 155.681 173.275 155.231 172.815C154.791 172.345 154.446 171.78 154.196 171.12C153.946 170.46 153.821 169.72 153.821 168.9C153.821 168.06 153.946 167.3 154.196 166.62C154.446 165.94 154.791 165.365 155.231 164.895C155.681 164.425 156.211 164.065 156.821 163.815C157.431 163.555 158.096 163.425 158.816 163.425C159.536 163.425 160.201 163.555 160.811 163.815C161.431 164.065 161.961 164.425 162.401 164.895C162.851 165.365 163.201 165.94 163.451 166.62C163.711 167.3 163.841 168.06 163.841 168.9ZM160.976 168.9C160.976 168.32 160.921 167.835 160.811 167.445C160.701 167.055 160.546 166.74 160.346 166.5C160.156 166.26 159.926 166.09 159.656 165.99C159.396 165.88 159.116 165.825 158.816 165.825C158.516 165.825 158.236 165.88 157.976 165.99C157.716 166.09 157.491 166.26 157.301 166.5C157.111 166.74 156.961 167.055 156.851 167.445C156.751 167.835 156.701 168.32 156.701 168.9C156.701 169.46 156.751 169.93 156.851 170.31C156.961 170.69 157.111 170.995 157.301 171.225C157.491 171.455 157.716 171.62 157.976 171.72C158.236 171.82 158.516 171.87 158.816 171.87C159.116 171.87 159.396 171.82 159.656 171.72C159.926 171.62 160.156 171.455 160.346 171.225C160.546 170.995 160.701 170.69 160.811 170.31C160.921 169.93 160.976 169.46 160.976 168.9Z" fill="white"/>
</svg>
