<svg width="288" height="288" viewBox="0 0 288 288" fill="none" xmlns="http://www.w3.org/2000/svg">
<circle cx="144" cy="144" r="142" fill="#30323A" stroke="white" stroke-width="4"/>
<path d="M123.534 132.885C123.754 132.885 123.949 132.97 124.119 133.14L125.709 134.865C124.829 135.955 123.744 136.79 122.454 137.37C121.174 137.95 119.634 138.24 117.834 138.24C116.224 138.24 114.774 137.965 113.484 137.415C112.204 136.865 111.109 136.1 110.199 135.12C109.289 134.14 108.589 132.97 108.099 131.61C107.619 130.25 107.379 128.765 107.379 127.155C107.379 125.525 107.639 124.035 108.159 122.685C108.679 121.325 109.409 120.155 110.349 119.175C111.299 118.195 112.429 117.435 113.739 116.895C115.049 116.345 116.499 116.07 118.089 116.07C119.669 116.07 121.069 116.33 122.289 116.85C123.519 117.37 124.564 118.05 125.424 118.89L124.074 120.765C123.994 120.885 123.889 120.99 123.759 121.08C123.639 121.17 123.469 121.215 123.249 121.215C123.099 121.215 122.944 121.175 122.784 121.095C122.624 121.005 122.449 120.9 122.259 120.78C122.069 120.65 121.849 120.51 121.599 120.36C121.349 120.21 121.059 120.075 120.729 119.955C120.399 119.825 120.014 119.72 119.574 119.64C119.144 119.55 118.644 119.505 118.074 119.505C117.104 119.505 116.214 119.68 115.404 120.03C114.604 120.37 113.914 120.87 113.334 121.53C112.754 122.18 112.304 122.98 111.984 123.93C111.664 124.87 111.504 125.945 111.504 127.155C111.504 128.375 111.674 129.46 112.014 130.41C112.364 131.36 112.834 132.16 113.424 132.81C114.014 133.46 114.709 133.96 115.509 134.31C116.309 134.65 117.169 134.82 118.089 134.82C118.639 134.82 119.134 134.79 119.574 134.73C120.024 134.67 120.434 134.575 120.804 134.445C121.184 134.315 121.539 134.15 121.869 133.95C122.209 133.74 122.544 133.485 122.874 133.185C122.974 133.095 123.079 133.025 123.189 132.975C123.299 132.915 123.414 132.885 123.534 132.885ZM131.593 124.26C132.193 123.7 132.853 123.245 133.573 122.895C134.293 122.545 135.138 122.37 136.108 122.37C136.948 122.37 137.693 122.515 138.343 122.805C138.993 123.085 139.533 123.485 139.963 124.005C140.403 124.515 140.733 125.13 140.953 125.85C141.183 126.56 141.298 127.345 141.298 128.205V138H137.593V128.205C137.593 127.265 137.378 126.54 136.948 126.03C136.518 125.51 135.863 125.25 134.983 125.25C134.343 125.25 133.743 125.395 133.183 125.685C132.623 125.975 132.093 126.37 131.593 126.87V138H127.888V115.71H131.593V124.26ZM148.661 122.61V138H144.941V122.61H148.661ZM149.171 118.125C149.171 118.445 149.106 118.745 148.976 119.025C148.846 119.305 148.671 119.55 148.451 119.76C148.241 119.97 147.991 120.14 147.701 120.27C147.411 120.39 147.101 120.45 146.771 120.45C146.451 120.45 146.146 120.39 145.856 120.27C145.576 120.14 145.331 119.97 145.121 119.76C144.911 119.55 144.741 119.305 144.611 119.025C144.491 118.745 144.431 118.445 144.431 118.125C144.431 117.795 144.491 117.485 144.611 117.195C144.741 116.905 144.911 116.655 145.121 116.445C145.331 116.235 145.576 116.07 145.856 115.95C146.146 115.82 146.451 115.755 146.771 115.755C147.101 115.755 147.411 115.82 147.701 115.95C147.991 116.07 148.241 116.235 148.451 116.445C148.671 116.655 148.846 116.905 148.976 117.195C149.106 117.485 149.171 117.795 149.171 118.125ZM155.903 124.5C156.213 124.19 156.538 123.905 156.878 123.645C157.228 123.375 157.593 123.15 157.973 122.97C158.363 122.78 158.778 122.635 159.218 122.535C159.658 122.425 160.138 122.37 160.658 122.37C161.498 122.37 162.243 122.515 162.893 122.805C163.543 123.085 164.083 123.485 164.513 124.005C164.953 124.515 165.283 125.13 165.503 125.85C165.733 126.56 165.848 127.345 165.848 128.205V138H162.143V128.205C162.143 127.265 161.928 126.54 161.498 126.03C161.068 125.51 160.413 125.25 159.533 125.25C158.893 125.25 158.293 125.395 157.733 125.685C157.173 125.975 156.643 126.37 156.143 126.87V138H152.438V122.61H154.703C155.183 122.61 155.498 122.835 155.648 123.285L155.903 124.5ZM177.502 131.43C176.432 131.48 175.532 131.575 174.802 131.715C174.072 131.845 173.487 132.015 173.047 132.225C172.607 132.435 172.292 132.68 172.102 132.96C171.912 133.24 171.817 133.545 171.817 133.875C171.817 134.525 172.007 134.99 172.387 135.27C172.777 135.55 173.282 135.69 173.902 135.69C174.662 135.69 175.317 135.555 175.867 135.285C176.427 135.005 176.972 134.585 177.502 134.025V131.43ZM169.012 124.755C170.782 123.135 172.912 122.325 175.402 122.325C176.302 122.325 177.107 122.475 177.817 122.775C178.527 123.065 179.127 123.475 179.617 124.005C180.107 124.525 180.477 125.15 180.727 125.88C180.987 126.61 181.117 127.41 181.117 128.28V138H179.437C179.087 138 178.817 137.95 178.627 137.85C178.437 137.74 178.287 137.525 178.177 137.205L177.847 136.095C177.457 136.445 177.077 136.755 176.707 137.025C176.337 137.285 175.952 137.505 175.552 137.685C175.152 137.865 174.722 138 174.262 138.09C173.812 138.19 173.312 138.24 172.762 138.24C172.112 138.24 171.512 138.155 170.962 137.985C170.412 137.805 169.937 137.54 169.537 137.19C169.137 136.84 168.827 136.405 168.607 135.885C168.387 135.365 168.277 134.76 168.277 134.07C168.277 133.68 168.342 133.295 168.472 132.915C168.602 132.525 168.812 132.155 169.102 131.805C169.402 131.455 169.787 131.125 170.257 130.815C170.727 130.505 171.302 130.235 171.982 130.005C172.672 129.775 173.472 129.59 174.382 129.45C175.292 129.3 176.332 129.21 177.502 129.18V128.28C177.502 127.25 177.282 126.49 176.842 126C176.402 125.5 175.767 125.25 174.937 125.25C174.337 125.25 173.837 125.32 173.437 125.46C173.047 125.6 172.702 125.76 172.402 125.94C172.102 126.11 171.827 126.265 171.577 126.405C171.337 126.545 171.067 126.615 170.767 126.615C170.507 126.615 170.287 126.55 170.107 126.42C169.927 126.28 169.782 126.12 169.672 125.94L169.012 124.755ZM129.523 170.55C129.923 170.55 130.238 170.665 130.468 170.895C130.708 171.115 130.828 171.41 130.828 171.78V174H115.948V172.77C115.948 172.52 115.998 172.26 116.098 171.99C116.208 171.71 116.378 171.46 116.608 171.24L123.193 164.64C123.743 164.08 124.233 163.545 124.663 163.035C125.103 162.525 125.468 162.02 125.758 161.52C126.048 161.02 126.268 160.515 126.418 160.005C126.578 159.485 126.658 158.94 126.658 158.37C126.658 157.85 126.583 157.395 126.433 157.005C126.283 156.605 126.068 156.27 125.788 156C125.518 155.73 125.188 155.53 124.798 155.4C124.418 155.26 123.988 155.19 123.508 155.19C123.068 155.19 122.658 155.255 122.278 155.385C121.908 155.505 121.578 155.68 121.288 155.91C120.998 156.13 120.753 156.39 120.553 156.69C120.353 156.99 120.203 157.32 120.103 157.68C119.933 158.14 119.713 158.445 119.443 158.595C119.173 158.745 118.783 158.78 118.273 158.7L116.323 158.355C116.473 157.315 116.763 156.405 117.193 155.625C117.623 154.835 118.158 154.18 118.798 153.66C119.448 153.13 120.188 152.735 121.018 152.475C121.858 152.205 122.758 152.07 123.718 152.07C124.718 152.07 125.633 152.22 126.463 152.52C127.293 152.81 128.003 153.225 128.593 153.765C129.183 154.305 129.643 154.955 129.973 155.715C130.303 156.475 130.468 157.32 130.468 158.25C130.468 159.05 130.348 159.79 130.108 160.47C129.878 161.15 129.563 161.8 129.163 162.42C128.773 163.04 128.313 163.64 127.783 164.22C127.253 164.8 126.698 165.39 126.118 165.99L121.228 170.985C121.698 170.845 122.163 170.74 122.623 170.67C123.093 170.59 123.538 170.55 123.958 170.55H129.523ZM137.16 158.82C137.16 160.03 137.47 160.955 138.09 161.595C138.72 162.225 139.61 162.54 140.76 162.54C141.36 162.54 141.895 162.445 142.365 162.255C142.835 162.065 143.23 161.805 143.55 161.475C143.87 161.145 144.11 160.755 144.27 160.305C144.44 159.855 144.525 159.37 144.525 158.85C144.525 158.26 144.435 157.735 144.255 157.275C144.075 156.805 143.82 156.41 143.49 156.09C143.16 155.77 142.765 155.525 142.305 155.355C141.855 155.185 141.36 155.1 140.82 155.1C140.26 155.1 139.755 155.195 139.305 155.385C138.855 155.565 138.47 155.82 138.15 156.15C137.83 156.48 137.585 156.875 137.415 157.335C137.245 157.785 137.16 158.28 137.16 158.82ZM142.08 165.585C142.25 165.375 142.41 165.17 142.56 164.97C142.71 164.77 142.855 164.57 142.995 164.37C142.495 164.69 141.945 164.935 141.345 165.105C140.745 165.265 140.115 165.345 139.455 165.345C138.705 165.345 137.97 165.215 137.25 164.955C136.53 164.695 135.89 164.305 135.33 163.785C134.77 163.255 134.315 162.605 133.965 161.835C133.625 161.055 133.455 160.145 133.455 159.105C133.455 158.135 133.635 157.225 133.995 156.375C134.355 155.525 134.86 154.78 135.51 154.14C136.16 153.5 136.94 152.995 137.85 152.625C138.76 152.255 139.765 152.07 140.865 152.07C141.975 152.07 142.97 152.245 143.85 152.595C144.74 152.945 145.495 153.435 146.115 154.065C146.745 154.695 147.225 155.45 147.555 156.33C147.895 157.21 148.065 158.175 148.065 159.225C148.065 159.895 148.005 160.53 147.885 161.13C147.775 161.73 147.615 162.31 147.405 162.87C147.195 163.42 146.94 163.96 146.64 164.49C146.34 165.02 146.005 165.545 145.635 166.065L140.67 173.145C140.5 173.385 140.245 173.59 139.905 173.76C139.565 173.92 139.18 174 138.75 174H135.345L142.08 165.585ZM160.787 157.56C160.787 158.38 160.647 159.12 160.367 159.78C160.097 160.44 159.732 161.005 159.272 161.475C158.812 161.935 158.277 162.29 157.667 162.54C157.057 162.79 156.422 162.915 155.762 162.915C155.042 162.915 154.377 162.79 153.767 162.54C153.157 162.29 152.627 161.935 152.177 161.475C151.737 161.005 151.392 160.44 151.142 159.78C150.892 159.12 150.767 158.38 150.767 157.56C150.767 156.72 150.892 155.96 151.142 155.28C151.392 154.6 151.737 154.025 152.177 153.555C152.627 153.085 153.157 152.725 153.767 152.475C154.377 152.215 155.042 152.085 155.762 152.085C156.482 152.085 157.147 152.215 157.757 152.475C158.377 152.725 158.912 153.085 159.362 153.555C159.812 154.025 160.162 154.6 160.412 155.28C160.662 155.96 160.787 156.72 160.787 157.56ZM157.937 157.56C157.937 156.98 157.877 156.495 157.757 156.105C157.647 155.715 157.492 155.4 157.292 155.16C157.102 154.92 156.872 154.75 156.602 154.65C156.342 154.54 156.062 154.485 155.762 154.485C155.462 154.485 155.182 154.54 154.922 154.65C154.662 154.75 154.437 154.92 154.247 155.16C154.067 155.4 153.922 155.715 153.812 156.105C153.702 156.495 153.647 156.98 153.647 157.56C153.647 158.12 153.702 158.59 153.812 158.97C153.922 159.34 154.067 159.64 154.247 159.87C154.437 160.1 154.662 160.265 154.922 160.365C155.182 160.465 155.462 160.515 155.762 160.515C156.062 160.515 156.342 160.465 156.602 160.365C156.872 160.265 157.102 160.1 157.292 159.87C157.492 159.64 157.647 159.34 157.757 158.97C157.877 158.59 157.937 158.12 157.937 157.56ZM168.002 152.895C168.132 152.745 168.282 152.61 168.452 152.49C168.632 152.37 168.882 152.31 169.202 152.31H171.902L155.792 173.445C155.662 173.605 155.507 173.74 155.327 173.85C155.147 173.95 154.927 174 154.667 174H151.907L168.002 152.895ZM173.042 168.9C173.042 169.72 172.902 170.46 172.622 171.12C172.352 171.78 171.987 172.345 171.527 172.815C171.067 173.275 170.532 173.635 169.922 173.895C169.312 174.145 168.677 174.27 168.017 174.27C167.297 174.27 166.632 174.145 166.022 173.895C165.412 173.635 164.882 173.275 164.432 172.815C163.992 172.345 163.647 171.78 163.397 171.12C163.147 170.46 163.022 169.72 163.022 168.9C163.022 168.06 163.147 167.3 163.397 166.62C163.647 165.94 163.992 165.365 164.432 164.895C164.882 164.425 165.412 164.065 166.022 163.815C166.632 163.555 167.297 163.425 168.017 163.425C168.737 163.425 169.402 163.555 170.012 163.815C170.632 164.065 171.162 164.425 171.602 164.895C172.052 165.365 172.402 165.94 172.652 166.62C172.912 167.3 173.042 168.06 173.042 168.9ZM170.177 168.9C170.177 168.32 170.122 167.835 170.012 167.445C169.902 167.055 169.747 166.74 169.547 166.5C169.357 166.26 169.127 166.09 168.857 165.99C168.597 165.88 168.317 165.825 168.017 165.825C167.717 165.825 167.437 165.88 167.177 165.99C166.917 166.09 166.692 166.26 166.502 166.5C166.312 166.74 166.162 167.055 166.052 167.445C165.952 167.835 165.902 168.32 165.902 168.9C165.902 169.46 165.952 169.93 166.052 170.31C166.162 170.69 166.312 170.995 166.502 171.225C166.692 171.455 166.917 171.62 167.177 171.72C167.437 171.82 167.717 171.87 168.017 171.87C168.317 171.87 168.597 171.82 168.857 171.72C169.127 171.62 169.357 171.455 169.547 171.225C169.747 170.995 169.902 170.69 170.012 170.31C170.122 169.93 170.177 169.46 170.177 168.9Z" fill="white"/>
</svg>
