<svg width="296" height="296" viewBox="0 0 296 296" fill="none" xmlns="http://www.w3.org/2000/svg">
<g filter="url(#filter0_d_60_10)">
<circle cx="148" cy="144" r="142" fill="#30323A" stroke="white" stroke-width="4"/>
<path d="M115.048 126.63C115.808 126.63 116.468 126.535 117.028 126.345C117.598 126.155 118.063 125.895 118.423 125.565C118.793 125.225 119.068 124.825 119.248 124.365C119.428 123.905 119.518 123.4 119.518 122.85C119.518 121.75 119.153 120.905 118.423 120.315C117.703 119.725 116.598 119.43 115.108 119.43H112.528V126.63H115.048ZM125.428 138H121.783C121.093 138 120.593 137.73 120.283 137.19L115.723 130.245C115.553 129.985 115.363 129.8 115.153 129.69C114.953 129.58 114.653 129.525 114.253 129.525H112.528V138H108.493V116.31H115.108C116.578 116.31 117.838 116.465 118.888 116.775C119.948 117.075 120.813 117.5 121.483 118.05C122.163 118.6 122.663 119.26 122.983 120.03C123.303 120.79 123.463 121.63 123.463 122.55C123.463 123.28 123.353 123.97 123.133 124.62C122.923 125.27 122.613 125.86 122.203 126.39C121.803 126.92 121.303 127.385 120.703 127.785C120.113 128.185 119.438 128.5 118.678 128.73C118.938 128.88 119.178 129.06 119.398 129.27C119.618 129.47 119.818 129.71 119.998 129.99L125.428 138ZM139.86 122.61V138H137.595C137.105 138 136.795 137.775 136.665 137.325L136.41 136.095C135.78 136.735 135.085 137.255 134.325 137.655C133.565 138.045 132.67 138.24 131.64 138.24C130.8 138.24 130.055 138.1 129.405 137.82C128.765 137.53 128.225 137.125 127.785 136.605C127.345 136.085 127.01 135.47 126.78 134.76C126.56 134.04 126.45 133.25 126.45 132.39V122.61H130.155V132.39C130.155 133.33 130.37 134.06 130.8 134.58C131.24 135.09 131.895 135.345 132.765 135.345C133.405 135.345 134.005 135.205 134.565 134.925C135.125 134.635 135.655 134.24 136.155 133.74V122.61H139.86ZM152.923 125.61C152.823 125.77 152.718 125.885 152.608 125.955C152.498 126.015 152.358 126.045 152.188 126.045C152.008 126.045 151.813 125.995 151.603 125.895C151.403 125.795 151.168 125.685 150.898 125.565C150.628 125.435 150.318 125.32 149.968 125.22C149.628 125.12 149.223 125.07 148.753 125.07C148.023 125.07 147.448 125.225 147.028 125.535C146.618 125.845 146.413 126.25 146.413 126.75C146.413 127.08 146.518 127.36 146.728 127.59C146.948 127.81 147.233 128.005 147.583 128.175C147.943 128.345 148.348 128.5 148.798 128.64C149.248 128.77 149.703 128.915 150.163 129.075C150.633 129.235 151.093 129.42 151.543 129.63C151.993 129.83 152.393 130.09 152.743 130.41C153.103 130.72 153.388 131.095 153.598 131.535C153.818 131.975 153.928 132.505 153.928 133.125C153.928 133.865 153.793 134.55 153.523 135.18C153.263 135.8 152.873 136.34 152.353 136.8C151.833 137.25 151.188 137.605 150.418 137.865C149.658 138.115 148.778 138.24 147.778 138.24C147.248 138.24 146.728 138.19 146.218 138.09C145.718 138 145.233 137.87 144.763 137.7C144.303 137.53 143.873 137.33 143.473 137.1C143.083 136.87 142.738 136.62 142.438 136.35L143.293 134.94C143.403 134.77 143.533 134.64 143.683 134.55C143.833 134.46 144.023 134.415 144.253 134.415C144.483 134.415 144.698 134.48 144.898 134.61C145.108 134.74 145.348 134.88 145.618 135.03C145.888 135.18 146.203 135.32 146.563 135.45C146.933 135.58 147.398 135.645 147.958 135.645C148.398 135.645 148.773 135.595 149.083 135.495C149.403 135.385 149.663 135.245 149.863 135.075C150.073 134.905 150.223 134.71 150.313 134.49C150.413 134.26 150.463 134.025 150.463 133.785C150.463 133.425 150.353 133.13 150.133 132.9C149.923 132.67 149.638 132.47 149.278 132.3C148.928 132.13 148.523 131.98 148.063 131.85C147.613 131.71 147.148 131.56 146.668 131.4C146.198 131.24 145.733 131.055 145.273 130.845C144.823 130.625 144.418 130.35 144.058 130.02C143.708 129.69 143.423 129.285 143.203 128.805C142.993 128.325 142.888 127.745 142.888 127.065C142.888 126.435 143.013 125.835 143.263 125.265C143.513 124.695 143.878 124.2 144.358 123.78C144.848 123.35 145.453 123.01 146.173 122.76C146.903 122.5 147.743 122.37 148.693 122.37C149.753 122.37 150.718 122.545 151.588 122.895C152.458 123.245 153.183 123.705 153.763 124.275L152.923 125.61ZM166.107 125.61C166.007 125.77 165.902 125.885 165.792 125.955C165.682 126.015 165.542 126.045 165.372 126.045C165.192 126.045 164.997 125.995 164.787 125.895C164.587 125.795 164.352 125.685 164.082 125.565C163.812 125.435 163.502 125.32 163.152 125.22C162.812 125.12 162.407 125.07 161.937 125.07C161.207 125.07 160.632 125.225 160.212 125.535C159.802 125.845 159.597 126.25 159.597 126.75C159.597 127.08 159.702 127.36 159.912 127.59C160.132 127.81 160.417 128.005 160.767 128.175C161.127 128.345 161.532 128.5 161.982 128.64C162.432 128.77 162.887 128.915 163.347 129.075C163.817 129.235 164.277 129.42 164.727 129.63C165.177 129.83 165.577 130.09 165.927 130.41C166.287 130.72 166.572 131.095 166.782 131.535C167.002 131.975 167.112 132.505 167.112 133.125C167.112 133.865 166.977 134.55 166.707 135.18C166.447 135.8 166.057 136.34 165.537 136.8C165.017 137.25 164.372 137.605 163.602 137.865C162.842 138.115 161.962 138.24 160.962 138.24C160.432 138.24 159.912 138.19 159.402 138.09C158.902 138 158.417 137.87 157.947 137.7C157.487 137.53 157.057 137.33 156.657 137.1C156.267 136.87 155.922 136.62 155.622 136.35L156.477 134.94C156.587 134.77 156.717 134.64 156.867 134.55C157.017 134.46 157.207 134.415 157.437 134.415C157.667 134.415 157.882 134.48 158.082 134.61C158.292 134.74 158.532 134.88 158.802 135.03C159.072 135.18 159.387 135.32 159.747 135.45C160.117 135.58 160.582 135.645 161.142 135.645C161.582 135.645 161.957 135.595 162.267 135.495C162.587 135.385 162.847 135.245 163.047 135.075C163.257 134.905 163.407 134.71 163.497 134.49C163.597 134.26 163.647 134.025 163.647 133.785C163.647 133.425 163.537 133.13 163.317 132.9C163.107 132.67 162.822 132.47 162.462 132.3C162.112 132.13 161.707 131.98 161.247 131.85C160.797 131.71 160.332 131.56 159.852 131.4C159.382 131.24 158.917 131.055 158.457 130.845C158.007 130.625 157.602 130.35 157.242 130.02C156.892 129.69 156.607 129.285 156.387 128.805C156.177 128.325 156.072 127.745 156.072 127.065C156.072 126.435 156.197 125.835 156.447 125.265C156.697 124.695 157.062 124.2 157.542 123.78C158.032 123.35 158.637 123.01 159.357 122.76C160.087 122.5 160.927 122.37 161.877 122.37C162.937 122.37 163.902 122.545 164.772 122.895C165.642 123.245 166.367 123.705 166.947 124.275L166.107 125.61ZM173.74 122.61V138H170.02V122.61H173.74ZM174.25 118.125C174.25 118.445 174.185 118.745 174.055 119.025C173.925 119.305 173.75 119.55 173.53 119.76C173.32 119.97 173.07 120.14 172.78 120.27C172.49 120.39 172.18 120.45 171.85 120.45C171.53 120.45 171.225 120.39 170.935 120.27C170.655 120.14 170.41 119.97 170.2 119.76C169.99 119.55 169.82 119.305 169.69 119.025C169.57 118.745 169.51 118.445 169.51 118.125C169.51 117.795 169.57 117.485 169.69 117.195C169.82 116.905 169.99 116.655 170.2 116.445C170.41 116.235 170.655 116.07 170.935 115.95C171.225 115.82 171.53 115.755 171.85 115.755C172.18 115.755 172.49 115.82 172.78 115.95C173.07 116.07 173.32 116.235 173.53 116.445C173.75 116.655 173.925 116.905 174.055 117.195C174.185 117.485 174.25 117.795 174.25 118.125ZM185.648 131.43C184.578 131.48 183.678 131.575 182.948 131.715C182.218 131.845 181.633 132.015 181.193 132.225C180.753 132.435 180.438 132.68 180.248 132.96C180.058 133.24 179.963 133.545 179.963 133.875C179.963 134.525 180.153 134.99 180.533 135.27C180.923 135.55 181.428 135.69 182.048 135.69C182.808 135.69 183.463 135.555 184.013 135.285C184.573 135.005 185.118 134.585 185.648 134.025V131.43ZM177.158 124.755C178.928 123.135 181.058 122.325 183.548 122.325C184.448 122.325 185.253 122.475 185.963 122.775C186.673 123.065 187.273 123.475 187.763 124.005C188.253 124.525 188.623 125.15 188.873 125.88C189.133 126.61 189.263 127.41 189.263 128.28V138H187.583C187.233 138 186.963 137.95 186.773 137.85C186.583 137.74 186.433 137.525 186.323 137.205L185.993 136.095C185.603 136.445 185.223 136.755 184.853 137.025C184.483 137.285 184.098 137.505 183.698 137.685C183.298 137.865 182.868 138 182.408 138.09C181.958 138.19 181.458 138.24 180.908 138.24C180.258 138.24 179.658 138.155 179.108 137.985C178.558 137.805 178.083 137.54 177.683 137.19C177.283 136.84 176.973 136.405 176.753 135.885C176.533 135.365 176.423 134.76 176.423 134.07C176.423 133.68 176.488 133.295 176.618 132.915C176.748 132.525 176.958 132.155 177.248 131.805C177.548 131.455 177.933 131.125 178.403 130.815C178.873 130.505 179.448 130.235 180.128 130.005C180.818 129.775 181.618 129.59 182.528 129.45C183.438 129.3 184.478 129.21 185.648 129.18V128.28C185.648 127.25 185.428 126.49 184.988 126C184.548 125.5 183.913 125.25 183.083 125.25C182.483 125.25 181.983 125.32 181.583 125.46C181.193 125.6 180.848 125.76 180.548 125.94C180.248 126.11 179.973 126.265 179.723 126.405C179.483 126.545 179.213 126.615 178.913 126.615C178.653 126.615 178.433 126.55 178.253 126.42C178.073 126.28 177.928 126.12 177.818 125.94L177.158 124.755ZM125.928 165.825V158.73C125.928 158.06 125.973 157.32 126.063 156.51L119.328 165.825H125.928ZM131.883 165.825V167.97C131.883 168.17 131.818 168.345 131.688 168.495C131.558 168.635 131.373 168.705 131.133 168.705H129.153V174H125.928V168.705H116.778C116.528 168.705 116.308 168.63 116.118 168.48C115.928 168.32 115.808 168.125 115.758 167.895L115.368 166.02L125.643 152.295H129.153V165.825H131.883ZM133.94 171.96C133.94 171.65 133.995 171.355 134.105 171.075C134.225 170.795 134.385 170.555 134.585 170.355C134.785 170.155 135.025 169.995 135.305 169.875C135.585 169.755 135.885 169.695 136.205 169.695C136.525 169.695 136.82 169.755 137.09 169.875C137.37 169.995 137.61 170.155 137.81 170.355C138.02 170.555 138.185 170.795 138.305 171.075C138.425 171.355 138.485 171.65 138.485 171.96C138.485 172.28 138.425 172.58 138.305 172.86C138.185 173.13 138.02 173.365 137.81 173.565C137.61 173.765 137.37 173.92 137.09 174.03C136.82 174.15 136.525 174.21 136.205 174.21C135.885 174.21 135.585 174.15 135.305 174.03C135.025 173.92 134.785 173.765 134.585 173.565C134.385 173.365 134.225 173.13 134.105 172.86C133.995 172.58 133.94 172.28 133.94 171.96ZM147.6 160.185L146.85 161.115C147.27 160.905 147.72 160.745 148.2 160.635C148.69 160.515 149.215 160.455 149.775 160.455C150.595 160.455 151.39 160.59 152.16 160.86C152.94 161.13 153.625 161.54 154.215 162.09C154.805 162.63 155.28 163.305 155.64 164.115C156 164.925 156.18 165.87 156.18 166.95C156.18 167.96 155.995 168.91 155.625 169.8C155.255 170.68 154.735 171.45 154.065 172.11C153.395 172.77 152.585 173.29 151.635 173.67C150.695 174.05 149.655 174.24 148.515 174.24C147.355 174.24 146.315 174.055 145.395 173.685C144.475 173.315 143.69 172.8 143.04 172.14C142.39 171.47 141.89 170.67 141.54 169.74C141.2 168.8 141.03 167.76 141.03 166.62C141.03 165.6 141.235 164.555 141.645 163.485C142.065 162.405 142.71 161.285 143.58 160.125L148.755 153.18C148.935 152.94 149.195 152.735 149.535 152.565C149.885 152.395 150.285 152.31 150.735 152.31H154.035L147.6 160.185ZM148.44 171.21C149.03 171.21 149.57 171.11 150.06 170.91C150.56 170.71 150.985 170.43 151.335 170.07C151.695 169.71 151.975 169.29 152.175 168.81C152.375 168.32 152.475 167.79 152.475 167.22C152.475 166.6 152.38 166.045 152.19 165.555C152 165.055 151.73 164.635 151.38 164.295C151.03 163.945 150.61 163.68 150.12 163.5C149.63 163.32 149.09 163.23 148.5 163.23C147.91 163.23 147.375 163.33 146.895 163.53C146.415 163.73 146.005 164.01 145.665 164.37C145.325 164.72 145.06 165.14 144.87 165.63C144.68 166.11 144.585 166.63 144.585 167.19C144.585 167.79 144.665 168.34 144.825 168.84C144.995 169.33 145.24 169.75 145.56 170.1C145.89 170.45 146.295 170.725 146.775 170.925C147.255 171.115 147.81 171.21 148.44 171.21ZM168.347 157.56C168.347 158.38 168.207 159.12 167.927 159.78C167.657 160.44 167.292 161.005 166.832 161.475C166.372 161.935 165.837 162.29 165.227 162.54C164.617 162.79 163.982 162.915 163.322 162.915C162.602 162.915 161.937 162.79 161.327 162.54C160.717 162.29 160.187 161.935 159.737 161.475C159.297 161.005 158.952 160.44 158.702 159.78C158.452 159.12 158.327 158.38 158.327 157.56C158.327 156.72 158.452 155.96 158.702 155.28C158.952 154.6 159.297 154.025 159.737 153.555C160.187 153.085 160.717 152.725 161.327 152.475C161.937 152.215 162.602 152.085 163.322 152.085C164.042 152.085 164.707 152.215 165.317 152.475C165.937 152.725 166.472 153.085 166.922 153.555C167.372 154.025 167.722 154.6 167.972 155.28C168.222 155.96 168.347 156.72 168.347 157.56ZM165.497 157.56C165.497 156.98 165.437 156.495 165.317 156.105C165.207 155.715 165.052 155.4 164.852 155.16C164.662 154.92 164.432 154.75 164.162 154.65C163.902 154.54 163.622 154.485 163.322 154.485C163.022 154.485 162.742 154.54 162.482 154.65C162.222 154.75 161.997 154.92 161.807 155.16C161.627 155.4 161.482 155.715 161.372 156.105C161.262 156.495 161.207 156.98 161.207 157.56C161.207 158.12 161.262 158.59 161.372 158.97C161.482 159.34 161.627 159.64 161.807 159.87C161.997 160.1 162.222 160.265 162.482 160.365C162.742 160.465 163.022 160.515 163.322 160.515C163.622 160.515 163.902 160.465 164.162 160.365C164.432 160.265 164.662 160.1 164.852 159.87C165.052 159.64 165.207 159.34 165.317 158.97C165.437 158.59 165.497 158.12 165.497 157.56ZM175.562 152.895C175.692 152.745 175.842 152.61 176.012 152.49C176.192 152.37 176.442 152.31 176.762 152.31H179.462L163.352 173.445C163.222 173.605 163.067 173.74 162.887 173.85C162.707 173.95 162.487 174 162.227 174H159.467L175.562 152.895ZM180.602 168.9C180.602 169.72 180.462 170.46 180.182 171.12C179.912 171.78 179.547 172.345 179.087 172.815C178.627 173.275 178.092 173.635 177.482 173.895C176.872 174.145 176.237 174.27 175.577 174.27C174.857 174.27 174.192 174.145 173.582 173.895C172.972 173.635 172.442 173.275 171.992 172.815C171.552 172.345 171.207 171.78 170.957 171.12C170.707 170.46 170.582 169.72 170.582 168.9C170.582 168.06 170.707 167.3 170.957 166.62C171.207 165.94 171.552 165.365 171.992 164.895C172.442 164.425 172.972 164.065 173.582 163.815C174.192 163.555 174.857 163.425 175.577 163.425C176.297 163.425 176.962 163.555 177.572 163.815C178.192 164.065 178.722 164.425 179.162 164.895C179.612 165.365 179.962 165.94 180.212 166.62C180.472 167.3 180.602 168.06 180.602 168.9ZM177.737 168.9C177.737 168.32 177.682 167.835 177.572 167.445C177.462 167.055 177.307 166.74 177.107 166.5C176.917 166.26 176.687 166.09 176.417 165.99C176.157 165.88 175.877 165.825 175.577 165.825C175.277 165.825 174.997 165.88 174.737 165.99C174.477 166.09 174.252 166.26 174.062 166.5C173.872 166.74 173.722 167.055 173.612 167.445C173.512 167.835 173.462 168.32 173.462 168.9C173.462 169.46 173.512 169.93 173.612 170.31C173.722 170.69 173.872 170.995 174.062 171.225C174.252 171.455 174.477 171.62 174.737 171.72C174.997 171.82 175.277 171.87 175.577 171.87C175.877 171.87 176.157 171.82 176.417 171.72C176.687 171.62 176.917 171.455 177.107 171.225C177.307 170.995 177.462 170.69 177.572 170.31C177.682 169.93 177.737 169.46 177.737 168.9Z" fill="white"/>
</g>
<defs>
<filter id="filter0_d_60_10" x="0" y="0" width="296" height="296" filterUnits="userSpaceOnUse" color-interpolation-filters="sRGB">
<feFlood flood-opacity="0" result="BackgroundImageFix"/>
<feColorMatrix in="SourceAlpha" type="matrix" values="0 0 0 0 0 0 0 0 0 0 0 0 0 0 0 0 0 0 127 0" result="hardAlpha"/>
<feOffset dy="4"/>
<feGaussianBlur stdDeviation="2"/>
<feComposite in2="hardAlpha" operator="out"/>
<feColorMatrix type="matrix" values="0 0 0 0 0 0 0 0 0 0 0 0 0 0 0 0 0 0 0.25 0"/>
<feBlend mode="normal" in2="BackgroundImageFix" result="effect1_dropShadow_60_10"/>
<feBlend mode="normal" in="SourceGraphic" in2="effect1_dropShadow_60_10" result="shape"/>
</filter>
</defs>
</svg>
