<svg width="211" height="211" viewBox="0 0 211 211" fill="none" xmlns="http://www.w3.org/2000/svg">
<g filter="url(#filter0_d_32_67)">
<path d="M51.3668 145.483C51.3668 143.616 49.851 142.1 47.9836 142.1C46.1162 142.1 44.6004 143.616 44.6004 145.483V152.25C44.6004 154.118 46.1162 155.633 47.9836 155.633C49.851 155.633 51.3668 154.118 51.3668 152.25V145.483Z" fill="#E2684A"/>
<path d="M51.3668 104.883C51.3668 103.016 49.851 101.5 47.9836 101.5C46.1162 101.5 44.6004 103.016 44.6004 104.883V111.65C44.6004 113.517 46.1162 115.033 47.9836 115.033C49.851 115.033 51.3668 113.517 51.3668 111.65V104.883Z" fill="#E2684A"/>
<path d="M37.8332 104.883C37.8332 103.016 36.3174 101.5 34.45 101.5C32.5825 101.5 31.0668 103.016 31.0668 104.883V111.65C31.0668 113.517 32.5825 115.033 34.45 115.033C36.3174 115.033 37.8332 113.517 37.8332 111.65V104.883Z" fill="#E2684A"/>
<path d="M47.9832 162.4C46.1157 162.4 44.6 163.916 44.6 165.783V172.55C44.6 174.417 46.1157 175.933 47.9832 175.933C49.8506 175.933 51.3664 174.417 51.3664 172.55V165.783C51.3668 163.916 49.851 162.4 47.9832 162.4Z" fill="#E2684A"/>
<path d="M51.3668 125.183C51.3668 123.316 49.851 121.8 47.9836 121.8C46.1162 121.8 44.6004 123.316 44.6004 125.183V131.95C44.6004 133.817 46.1162 135.333 47.9836 135.333C49.851 135.333 51.3668 133.817 51.3668 131.95V125.183Z" fill="#E2684A"/>
<path d="M37.8332 125.183C37.8332 123.316 36.3174 121.8 34.45 121.8C32.5825 121.8 31.0668 123.316 31.0668 125.183V131.95C31.0668 133.817 32.5825 135.333 34.45 135.333C36.3174 135.333 37.8332 133.817 37.8332 131.95V125.183Z" fill="#E2684A"/>
<path d="M34.45 162.4C32.5825 162.4 31.0668 163.916 31.0668 165.783V172.55C31.0668 174.417 32.5825 175.933 34.45 175.933C36.3174 175.933 37.8332 174.417 37.8332 172.55V165.783C37.8332 163.916 36.3174 162.4 34.45 162.4Z" fill="#E2684A"/>
<path d="M37.8332 145.483C37.8332 143.616 36.3174 142.1 34.45 142.1C32.5825 142.1 31.0668 143.616 31.0668 145.483V152.25C31.0668 154.118 32.5825 155.633 34.45 155.633C36.3174 155.633 37.8332 154.118 37.8332 152.25V145.483Z" fill="#E2684A"/>
<path d="M51.3668 84.5834C51.3668 82.716 49.851 81.2002 47.9836 81.2002C46.1162 81.2002 44.6004 82.716 44.6004 84.5834V91.3502C44.6004 93.2176 46.1162 94.7334 47.9836 94.7334C49.851 94.7334 51.3668 93.2176 51.3668 91.3502V84.5834Z" fill="#E2684A"/>
<path d="M183.459 187.054C183.898 188.522 185.242 189.466 186.696 189.466C187.021 189.466 187.346 189.419 187.671 189.324C189.461 188.786 190.476 186.902 189.941 185.112C189.84 184.777 179.933 151.049 179.933 98.1163V64.2831C179.933 62.4157 178.417 60.8999 176.55 60.8999H102.117C100.249 60.8999 98.7336 62.4157 98.7336 64.2831V84.5831C98.7336 86.4505 100.249 87.9663 102.117 87.9663H163.017C164.884 87.9663 166.4 86.4505 166.4 84.5831C166.4 82.7157 164.884 81.1999 163.017 81.1999H105.5V67.6667H173.167V98.1167C173.167 152.125 183.039 185.654 183.459 187.054Z" fill="#E2684A"/>
<path d="M165.48 41.1478C166.857 39.8857 166.951 37.7475 165.689 36.3705C164.427 34.99 162.289 34.8952 160.909 36.1572C157.782 39.023 153.726 40.5994 149.483 40.5994C147.616 40.5994 146.1 42.1152 146.1 43.9826C146.1 45.8501 147.616 47.3658 149.483 47.3658C155.421 47.3666 161.102 45.157 165.48 41.1478Z" fill="#E2684A"/>
<path d="M183.418 6.7668C185.289 6.7668 186.802 5.25104 186.802 3.3836C186.802 1.51616 185.289 0 183.418 0H183.385C181.517 0 180.018 1.51576 180.018 3.3832C180.018 5.25064 181.547 6.7668 183.418 6.7668Z" fill="#E2684A"/>
<path d="M95.4515 20.3001C97.319 20.3001 98.8347 18.7843 98.8347 16.9169C98.8347 15.0495 97.319 13.5337 95.4515 13.5337H95.4178C93.5504 13.5337 92.0513 15.0495 92.0513 16.9169C92.0513 18.7843 93.5805 20.3001 95.4515 20.3001Z" fill="#E2684A"/>
<path d="M51.3668 50.7501V43.9833C51.3668 42.1159 49.851 40.6001 47.9836 40.6001C46.1162 40.6001 44.6004 42.1159 44.6004 43.9833V50.7501C44.6004 52.6175 46.1162 54.1333 47.9836 54.1333C49.851 54.1333 51.3668 52.6175 51.3668 50.7501Z" fill="#E2684A"/>
<path d="M7.3832 189.467H91.9664C93.4584 189.467 94.7779 188.486 95.2077 187.055C95.6275 185.654 105.5 152.125 105.5 98.1169C105.5 96.8347 104.776 95.6638 103.629 95.0889L78.4332 82.4926V16.9169C78.4332 15.0495 76.9174 13.5337 75.05 13.5337C73.1826 13.5337 71.6668 15.0495 71.6668 16.9169V21.0411L33.6281 30.5516C32.1226 30.9271 31.0668 32.2807 31.0668 33.8333V50.7501C31.0668 52.6175 32.5826 54.1333 34.45 54.1333C36.3174 54.1333 37.8332 52.6175 37.8332 50.7501V36.4759L71.6664 28.0177V84.5837C71.6664 85.8659 72.3904 87.0367 73.5374 87.6116L98.7265 100.204C98.5132 143.971 91.5707 174.225 89.3817 182.7H10.7668V61.8509L58.1336 73.6927V172.55C58.1336 174.418 59.6494 175.933 61.5168 175.933C63.3842 175.933 64.9 174.418 64.9 172.55V71.0501C64.9 69.4971 63.841 68.1439 62.3387 67.7684L8.20551 54.2348C7.19725 53.9846 6.12119 54.2078 5.30245 54.8505C4.48054 55.4901 4 56.4745 4 57.5169V186.084C4 187.951 5.51576 189.467 7.3832 189.467Z" fill="#E2684A"/>
<path d="M64.9 50.7501V43.9833C64.9 42.1159 63.3843 40.6001 61.5168 40.6001C59.6494 40.6001 58.1336 42.1159 58.1336 43.9833V50.7501C58.1336 52.6175 59.6494 54.1333 61.5168 54.1333C63.3843 54.1333 64.9 52.6175 64.9 50.7501Z" fill="#E2684A"/>
<path d="M98.7332 37.2168C98.7332 46.5445 106.322 54.1336 115.65 54.1336C124.978 54.1336 132.567 46.5449 132.567 37.2168C132.567 35.3494 131.051 33.8336 129.184 33.8336C127.316 33.8336 125.8 35.3494 125.8 37.2168C125.8 42.8128 121.246 47.3668 115.65 47.3668C110.054 47.3668 105.5 42.8128 105.5 37.2168C105.5 32.4023 108.924 28.217 113.637 27.2734C114.619 27.0739 115.461 26.4546 115.938 25.5816C116.419 24.7053 116.49 23.6634 116.128 22.7293C115.81 21.9173 115.651 21.0985 115.651 20.3C115.651 16.5683 118.686 13.5332 122.418 13.5332C124.793 13.5332 126.955 14.775 128.196 16.8522C128.839 17.9247 130.02 18.5337 131.275 18.4932C132.524 18.4322 133.637 17.6812 134.168 16.5477C136.939 10.6067 142.954 6.7664 149.484 6.7664C158.812 6.7664 166.401 14.3551 166.401 23.6832C166.401 24.228 166.367 24.766 166.32 25.2969C166.198 26.5656 166.803 27.7904 167.876 28.4704C168.952 29.1539 170.318 29.1741 171.411 28.5247C173.042 27.5573 174.771 27.0664 176.55 27.0664C182.146 27.0664 186.7 31.6204 186.7 37.2164C186.7 42.8124 182.146 47.3664 176.55 47.3664C174.683 47.3664 173.167 48.8822 173.167 50.7496C173.167 52.617 174.683 54.1328 176.55 54.1328C185.878 54.1328 193.467 46.5441 193.467 37.216C193.467 27.8883 185.878 20.2992 176.55 20.2992C175.353 20.2992 174.155 20.4344 172.981 20.6985C171.509 9.04381 161.532 0 149.483 0C141.983 0 134.969 3.61356 130.547 9.49699C128.246 7.74453 125.421 6.7668 122.416 6.7668C114.953 6.7668 108.883 12.8366 108.883 20.3C108.883 20.7603 108.907 21.2202 108.958 21.6837C102.871 24.3092 98.7332 30.379 98.7332 37.2168Z" fill="#E2684A"/>
<path d="M85.2 148.867C85.2 150.734 86.7158 152.25 88.5832 152.25C90.4507 152.25 91.9664 150.734 91.9664 148.867V145.484C91.9664 143.616 90.4507 142.101 88.5832 142.101C86.7158 142.101 85.2 143.616 85.2 145.484V148.867Z" fill="#E2684A"/>
<path d="M88.5832 115.033C90.4507 115.033 91.9664 113.517 91.9664 111.65V104.883C91.9664 103.016 90.4507 101.5 88.5832 101.5C86.7158 101.5 85.2 103.016 85.2 104.883V111.65C85.2 113.517 86.7158 115.033 88.5832 115.033Z" fill="#E2684A"/>
<path d="M71.6668 172.55C71.6668 174.417 73.1826 175.933 75.05 175.933C76.9174 175.933 78.4332 174.417 78.4332 172.55V165.783C78.4332 163.916 76.9174 162.4 75.05 162.4C73.1826 162.4 71.6668 163.916 71.6668 165.783V172.55Z" fill="#E2684A"/>
<path d="M85.2 131.95C85.2 133.817 86.7158 135.333 88.5832 135.333C90.4507 135.333 91.9664 133.817 91.9664 131.95V125.183C91.9664 123.316 90.4507 121.8 88.5832 121.8C86.7158 121.8 85.2 123.316 85.2 125.183V131.95Z" fill="#E2684A"/>
<path d="M54.75 196.233H7.3832C5.51576 196.233 4 197.749 4 199.617C4 201.484 5.51576 203 7.3832 203H54.75C56.6174 203 58.1332 201.484 58.1332 199.617C58.1332 197.75 56.6174 196.233 54.75 196.233Z" fill="#E2684A"/>
<path d="M203.617 196.233H149.483C147.616 196.233 146.1 197.749 146.1 199.617C146.1 201.484 147.616 203 149.483 203H203.616C205.484 203 207 201.484 207 199.617C207 197.749 205.484 196.233 203.617 196.233Z" fill="#E2684A"/>
<path d="M115.65 196.233H68.2832C66.4158 196.233 64.9 197.749 64.9 199.617C64.9 201.484 66.4158 203 68.2832 203H115.65C117.517 203 119.033 201.484 119.033 199.617C119.033 197.749 117.517 196.233 115.65 196.233Z" fill="#E2684A"/>
<path d="M37.8332 84.5834C37.8332 82.716 36.3174 81.2002 34.45 81.2002C32.5825 81.2002 31.0668 82.716 31.0668 84.5834V91.3502C31.0668 93.2176 32.5825 94.7334 34.45 94.7334C36.3174 94.7334 37.8332 93.2176 37.8332 91.3502V84.5834Z" fill="#E2684A"/>
<path d="M135.95 196.233H129.183C127.316 196.233 125.8 197.749 125.8 199.617C125.8 201.484 127.316 203 129.183 203H135.95C137.817 203 139.333 201.484 139.333 199.617C139.333 197.749 137.817 196.233 135.95 196.233Z" fill="#E2684A"/>
<path d="M24.3 104.883C24.3 103.016 22.7842 101.5 20.9168 101.5C19.0493 101.5 17.5336 103.016 17.5336 104.883V111.65C17.5336 113.517 19.0493 115.033 20.9168 115.033C22.7842 115.033 24.3 113.517 24.3 111.65V104.883Z" fill="#E2684A"/>
<path d="M71.6668 152.25C71.6668 154.118 73.1826 155.633 75.05 155.633C76.9174 155.633 78.4332 154.118 78.4332 152.25V145.483C78.4332 143.616 76.9174 142.1 75.05 142.1C73.1826 142.1 71.6668 143.616 71.6668 145.483V152.25Z" fill="#E2684A"/>
<path d="M24.3 125.183C24.3 123.316 22.7842 121.8 20.9168 121.8C19.0493 121.8 17.5336 123.316 17.5336 125.183V131.95C17.5336 133.817 19.0493 135.333 20.9168 135.333C22.7842 135.333 24.3 133.817 24.3 131.95V125.183Z" fill="#E2684A"/>
<path d="M24.3 145.483C24.3 143.616 22.7842 142.1 20.9168 142.1C19.0493 142.1 17.5336 143.616 17.5336 145.483V152.25C17.5336 154.118 19.0493 155.633 20.9168 155.633C22.7842 155.633 24.3 154.118 24.3 152.25V145.483Z" fill="#E2684A"/>
<path d="M20.9168 162.4C19.0493 162.4 17.5336 163.916 17.5336 165.783V172.55C17.5336 174.417 19.0493 175.933 20.9168 175.933C22.7842 175.933 24.3 174.417 24.3 172.55V165.783C24.3 163.916 22.7842 162.4 20.9168 162.4Z" fill="#E2684A"/>
<path d="M75.05 115.033C76.9174 115.033 78.4332 113.517 78.4332 111.65V104.883C78.4332 103.016 76.9174 101.5 75.05 101.5C73.1826 101.5 71.6668 103.016 71.6668 104.883V111.65C71.6668 113.517 73.1826 115.033 75.05 115.033Z" fill="#E2684A"/>
<path d="M24.3 84.5834C24.3 82.716 22.7842 81.2002 20.9168 81.2002C19.0493 81.2002 17.5336 82.716 17.5336 84.5834V91.3502C17.5336 93.2176 19.0493 94.7334 20.9168 94.7334C22.7842 94.7334 24.3 93.2176 24.3 91.3502V84.5834Z" fill="#E2684A"/>
<path d="M71.6668 131.95C71.6668 133.817 73.1826 135.333 75.05 135.333C76.9174 135.333 78.4332 133.817 78.4332 131.95V125.183C78.4332 123.316 76.9174 121.8 75.05 121.8C73.1826 121.8 71.6668 123.316 71.6668 125.183V131.95Z" fill="#E2684A"/>
</g>
<defs>
<filter id="filter0_d_32_67" x="0" y="0" width="211" height="211" filterUnits="userSpaceOnUse" color-interpolation-filters="sRGB">
<feFlood flood-opacity="0" result="BackgroundImageFix"/>
<feColorMatrix in="SourceAlpha" type="matrix" values="0 0 0 0 0 0 0 0 0 0 0 0 0 0 0 0 0 0 127 0" result="hardAlpha"/>
<feOffset dy="4"/>
<feGaussianBlur stdDeviation="2"/>
<feComposite in2="hardAlpha" operator="out"/>
<feColorMatrix type="matrix" values="0 0 0 0 0 0 0 0 0 0 0 0 0 0 0 0 0 0 0.25 0"/>
<feBlend mode="normal" in2="BackgroundImageFix" result="effect1_dropShadow_32_67"/>
<feBlend mode="normal" in="SourceGraphic" in2="effect1_dropShadow_32_67" result="shape"/>
</filter>
</defs>
</svg>
