<svg width="288" height="288" viewBox="0 0 288 288" fill="none" xmlns="http://www.w3.org/2000/svg">
<circle cx="144" cy="144" r="142" fill="#30323A" stroke="white" stroke-width="4"/>
<path d="M116.272 130.29C116.272 131.51 116.122 132.61 115.822 133.59C115.522 134.57 115.072 135.405 114.472 136.095C113.882 136.785 113.142 137.315 112.252 137.685C111.362 138.055 110.327 138.24 109.147 138.24C108.607 138.24 108.077 138.205 107.557 138.135C107.037 138.075 106.492 137.975 105.922 137.835C105.952 137.435 105.987 137.035 106.027 136.635C106.067 136.235 106.102 135.835 106.132 135.435C106.162 135.215 106.247 135.04 106.387 134.91C106.537 134.77 106.747 134.7 107.017 134.7C107.187 134.7 107.407 134.735 107.677 134.805C107.957 134.875 108.307 134.91 108.727 134.91C109.297 134.91 109.802 134.83 110.242 134.67C110.682 134.5 111.047 134.235 111.337 133.875C111.637 133.515 111.862 133.05 112.012 132.48C112.162 131.9 112.237 131.2 112.237 130.38V116.31H116.272V130.29ZM127.915 131.43C126.845 131.48 125.945 131.575 125.215 131.715C124.485 131.845 123.9 132.015 123.46 132.225C123.02 132.435 122.705 132.68 122.515 132.96C122.325 133.24 122.23 133.545 122.23 133.875C122.23 134.525 122.42 134.99 122.8 135.27C123.19 135.55 123.695 135.69 124.315 135.69C125.075 135.69 125.73 135.555 126.28 135.285C126.84 135.005 127.385 134.585 127.915 134.025V131.43ZM119.425 124.755C121.195 123.135 123.325 122.325 125.815 122.325C126.715 122.325 127.52 122.475 128.23 122.775C128.94 123.065 129.54 123.475 130.03 124.005C130.52 124.525 130.89 125.15 131.14 125.88C131.4 126.61 131.53 127.41 131.53 128.28V138H129.85C129.5 138 129.23 137.95 129.04 137.85C128.85 137.74 128.7 137.525 128.59 137.205L128.26 136.095C127.87 136.445 127.49 136.755 127.12 137.025C126.75 137.285 126.365 137.505 125.965 137.685C125.565 137.865 125.135 138 124.675 138.09C124.225 138.19 123.725 138.24 123.175 138.24C122.525 138.24 121.925 138.155 121.375 137.985C120.825 137.805 120.35 137.54 119.95 137.19C119.55 136.84 119.24 136.405 119.02 135.885C118.8 135.365 118.69 134.76 118.69 134.07C118.69 133.68 118.755 133.295 118.885 132.915C119.015 132.525 119.225 132.155 119.515 131.805C119.815 131.455 120.2 131.125 120.67 130.815C121.14 130.505 121.715 130.235 122.395 130.005C123.085 129.775 123.885 129.59 124.795 129.45C125.705 129.3 126.745 129.21 127.915 129.18V128.28C127.915 127.25 127.695 126.49 127.255 126C126.815 125.5 126.18 125.25 125.35 125.25C124.75 125.25 124.25 125.32 123.85 125.46C123.46 125.6 123.115 125.76 122.815 125.94C122.515 126.11 122.24 126.265 121.99 126.405C121.75 126.545 121.48 126.615 121.18 126.615C120.92 126.615 120.7 126.55 120.52 126.42C120.34 126.28 120.195 126.12 120.085 125.94L119.425 124.755ZM138.724 134.01C139.144 134.52 139.599 134.88 140.089 135.09C140.589 135.3 141.129 135.405 141.709 135.405C142.269 135.405 142.774 135.3 143.224 135.09C143.674 134.88 144.054 134.56 144.364 134.13C144.684 133.7 144.929 133.16 145.099 132.51C145.269 131.85 145.354 131.075 145.354 130.185C145.354 129.285 145.279 128.525 145.129 127.905C144.989 127.275 144.784 126.765 144.514 126.375C144.244 125.985 143.914 125.7 143.524 125.52C143.144 125.34 142.709 125.25 142.219 125.25C141.449 125.25 140.794 125.415 140.254 125.745C139.714 126.065 139.204 126.52 138.724 127.11V134.01ZM138.529 124.71C139.159 124 139.874 123.425 140.674 122.985C141.474 122.545 142.414 122.325 143.494 122.325C144.334 122.325 145.099 122.5 145.789 122.85C146.489 123.2 147.089 123.71 147.589 124.38C148.099 125.04 148.489 125.86 148.759 126.84C149.039 127.81 149.179 128.925 149.179 130.185C149.179 131.335 149.024 132.4 148.714 133.38C148.404 134.36 147.959 135.21 147.379 135.93C146.809 136.65 146.114 137.215 145.294 137.625C144.484 138.025 143.574 138.225 142.564 138.225C141.704 138.225 140.969 138.095 140.359 137.835C139.749 137.565 139.204 137.195 138.724 136.725V143.025H135.019V122.61H137.284C137.764 122.61 138.079 122.835 138.229 123.285L138.529 124.71ZM160.2 131.43C159.13 131.48 158.23 131.575 157.5 131.715C156.77 131.845 156.185 132.015 155.745 132.225C155.305 132.435 154.99 132.68 154.8 132.96C154.61 133.24 154.515 133.545 154.515 133.875C154.515 134.525 154.705 134.99 155.085 135.27C155.475 135.55 155.98 135.69 156.6 135.69C157.36 135.69 158.015 135.555 158.565 135.285C159.125 135.005 159.67 134.585 160.2 134.025V131.43ZM151.71 124.755C153.48 123.135 155.61 122.325 158.1 122.325C159 122.325 159.805 122.475 160.515 122.775C161.225 123.065 161.825 123.475 162.315 124.005C162.805 124.525 163.175 125.15 163.425 125.88C163.685 126.61 163.815 127.41 163.815 128.28V138H162.135C161.785 138 161.515 137.95 161.325 137.85C161.135 137.74 160.985 137.525 160.875 137.205L160.545 136.095C160.155 136.445 159.775 136.755 159.405 137.025C159.035 137.285 158.65 137.505 158.25 137.685C157.85 137.865 157.42 138 156.96 138.09C156.51 138.19 156.01 138.24 155.46 138.24C154.81 138.24 154.21 138.155 153.66 137.985C153.11 137.805 152.635 137.54 152.235 137.19C151.835 136.84 151.525 136.405 151.305 135.885C151.085 135.365 150.975 134.76 150.975 134.07C150.975 133.68 151.04 133.295 151.17 132.915C151.3 132.525 151.51 132.155 151.8 131.805C152.1 131.455 152.485 131.125 152.955 130.815C153.425 130.505 154 130.235 154.68 130.005C155.37 129.775 156.17 129.59 157.08 129.45C157.99 129.3 159.03 129.21 160.2 129.18V128.28C160.2 127.25 159.98 126.49 159.54 126C159.1 125.5 158.465 125.25 157.635 125.25C157.035 125.25 156.535 125.32 156.135 125.46C155.745 125.6 155.4 125.76 155.1 125.94C154.8 126.11 154.525 126.265 154.275 126.405C154.035 126.545 153.765 126.615 153.465 126.615C153.205 126.615 152.985 126.55 152.805 126.42C152.625 126.28 152.48 126.12 152.37 125.94L151.71 124.755ZM170.77 124.5C171.08 124.19 171.405 123.905 171.745 123.645C172.095 123.375 172.46 123.15 172.84 122.97C173.23 122.78 173.645 122.635 174.085 122.535C174.525 122.425 175.005 122.37 175.525 122.37C176.365 122.37 177.11 122.515 177.76 122.805C178.41 123.085 178.95 123.485 179.38 124.005C179.82 124.515 180.15 125.13 180.37 125.85C180.6 126.56 180.715 127.345 180.715 128.205V138H177.01V128.205C177.01 127.265 176.795 126.54 176.365 126.03C175.935 125.51 175.28 125.25 174.4 125.25C173.76 125.25 173.16 125.395 172.6 125.685C172.04 125.975 171.51 126.37 171.01 126.87V138H167.305V122.61H169.57C170.05 122.61 170.365 122.835 170.515 123.285L170.77 124.5ZM103.667 158.355C103.817 157.315 104.107 156.405 104.537 155.625C104.967 154.835 105.502 154.18 106.142 153.66C106.792 153.13 107.532 152.735 108.362 152.475C109.202 152.205 110.102 152.07 111.062 152.07C112.062 152.07 112.962 152.215 113.762 152.505C114.572 152.785 115.262 153.18 115.832 153.69C116.402 154.19 116.837 154.78 117.137 155.46C117.447 156.14 117.602 156.875 117.602 157.665C117.602 158.355 117.522 158.965 117.362 159.495C117.212 160.015 116.992 160.47 116.702 160.86C116.412 161.25 116.052 161.58 115.622 161.85C115.192 162.12 114.707 162.345 114.167 162.525C115.467 162.935 116.437 163.56 117.077 164.4C117.717 165.24 118.037 166.295 118.037 167.565C118.037 168.645 117.837 169.6 117.437 170.43C117.037 171.26 116.497 171.96 115.817 172.53C115.137 173.09 114.347 173.515 113.447 173.805C112.557 174.095 111.612 174.24 110.612 174.24C109.522 174.24 108.572 174.115 107.762 173.865C106.952 173.615 106.247 173.245 105.647 172.755C105.047 172.265 104.537 171.665 104.117 170.955C103.697 170.245 103.337 169.425 103.037 168.495L104.672 167.82C105.102 167.64 105.502 167.595 105.872 167.685C106.252 167.765 106.527 167.965 106.697 168.285C106.877 168.635 107.072 168.98 107.282 169.32C107.502 169.66 107.762 169.965 108.062 170.235C108.362 170.495 108.712 170.71 109.112 170.88C109.522 171.04 110.007 171.12 110.567 171.12C111.197 171.12 111.747 171.02 112.217 170.82C112.687 170.61 113.077 170.34 113.387 170.01C113.707 169.68 113.942 169.315 114.092 168.915C114.252 168.505 114.332 168.095 114.332 167.685C114.332 167.165 114.277 166.695 114.167 166.275C114.057 165.845 113.827 165.48 113.477 165.18C113.127 164.88 112.622 164.645 111.962 164.475C111.312 164.305 110.437 164.22 109.337 164.22V161.58C110.247 161.57 111.002 161.485 111.602 161.325C112.202 161.165 112.677 160.945 113.027 160.665C113.387 160.375 113.637 160.03 113.777 159.63C113.917 159.23 113.987 158.79 113.987 158.31C113.987 157.29 113.702 156.515 113.132 155.985C112.562 155.455 111.802 155.19 110.852 155.19C110.412 155.19 110.007 155.255 109.637 155.385C109.267 155.505 108.932 155.68 108.632 155.91C108.342 156.13 108.097 156.39 107.897 156.69C107.697 156.99 107.547 157.32 107.447 157.68C107.277 158.14 107.052 158.445 106.772 158.595C106.502 158.745 106.117 158.78 105.617 158.7L103.667 158.355ZM120.739 171.96C120.739 171.65 120.794 171.355 120.904 171.075C121.024 170.795 121.184 170.555 121.384 170.355C121.584 170.155 121.824 169.995 122.104 169.875C122.384 169.755 122.684 169.695 123.004 169.695C123.324 169.695 123.619 169.755 123.889 169.875C124.169 169.995 124.409 170.155 124.609 170.355C124.819 170.555 124.984 170.795 125.104 171.075C125.224 171.355 125.284 171.65 125.284 171.96C125.284 172.28 125.224 172.58 125.104 172.86C124.984 173.13 124.819 173.365 124.609 173.565C124.409 173.765 124.169 173.92 123.889 174.03C123.619 174.15 123.324 174.21 123.004 174.21C122.684 174.21 122.384 174.15 122.104 174.03C121.824 173.92 121.584 173.765 121.384 173.565C121.184 173.365 121.024 173.13 120.904 172.86C120.794 172.58 120.739 172.28 120.739 171.96ZM137.248 165.825V158.73C137.248 158.06 137.293 157.32 137.383 156.51L130.648 165.825H137.248ZM143.203 165.825V167.97C143.203 168.17 143.138 168.345 143.008 168.495C142.878 168.635 142.693 168.705 142.453 168.705H140.473V174H137.248V168.705H128.098C127.848 168.705 127.628 168.63 127.438 168.48C127.248 168.32 127.128 168.125 127.078 167.895L126.688 166.02L136.963 152.295H140.473V165.825H143.203ZM160.351 152.31V153.915C160.351 154.395 160.301 154.785 160.201 155.085C160.101 155.375 160.001 155.62 159.901 155.82L151.681 172.74C151.511 173.09 151.271 173.39 150.961 173.64C150.651 173.88 150.236 174 149.716 174H147.031L155.416 157.425C155.606 157.085 155.791 156.775 155.971 156.495C156.161 156.205 156.371 155.93 156.601 155.67H146.221C145.991 155.67 145.791 155.585 145.621 155.415C145.451 155.245 145.366 155.045 145.366 154.815V152.31H160.351ZM172.548 157.56C172.548 158.38 172.408 159.12 172.128 159.78C171.858 160.44 171.493 161.005 171.033 161.475C170.573 161.935 170.038 162.29 169.428 162.54C168.818 162.79 168.183 162.915 167.523 162.915C166.803 162.915 166.138 162.79 165.528 162.54C164.918 162.29 164.388 161.935 163.938 161.475C163.498 161.005 163.153 160.44 162.903 159.78C162.653 159.12 162.528 158.38 162.528 157.56C162.528 156.72 162.653 155.96 162.903 155.28C163.153 154.6 163.498 154.025 163.938 153.555C164.388 153.085 164.918 152.725 165.528 152.475C166.138 152.215 166.803 152.085 167.523 152.085C168.243 152.085 168.908 152.215 169.518 152.475C170.138 152.725 170.673 153.085 171.123 153.555C171.573 154.025 171.923 154.6 172.173 155.28C172.423 155.96 172.548 156.72 172.548 157.56ZM169.698 157.56C169.698 156.98 169.638 156.495 169.518 156.105C169.408 155.715 169.253 155.4 169.053 155.16C168.863 154.92 168.633 154.75 168.363 154.65C168.103 154.54 167.823 154.485 167.523 154.485C167.223 154.485 166.943 154.54 166.683 154.65C166.423 154.75 166.198 154.92 166.008 155.16C165.828 155.4 165.683 155.715 165.573 156.105C165.463 156.495 165.408 156.98 165.408 157.56C165.408 158.12 165.463 158.59 165.573 158.97C165.683 159.34 165.828 159.64 166.008 159.87C166.198 160.1 166.423 160.265 166.683 160.365C166.943 160.465 167.223 160.515 167.523 160.515C167.823 160.515 168.103 160.465 168.363 160.365C168.633 160.265 168.863 160.1 169.053 159.87C169.253 159.64 169.408 159.34 169.518 158.97C169.638 158.59 169.698 158.12 169.698 157.56ZM179.763 152.895C179.893 152.745 180.043 152.61 180.213 152.49C180.393 152.37 180.643 152.31 180.963 152.31H183.663L167.553 173.445C167.423 173.605 167.268 173.74 167.088 173.85C166.908 173.95 166.688 174 166.428 174H163.668L179.763 152.895ZM184.803 168.9C184.803 169.72 184.663 170.46 184.383 171.12C184.113 171.78 183.748 172.345 183.288 172.815C182.828 173.275 182.293 173.635 181.683 173.895C181.073 174.145 180.438 174.27 179.778 174.27C179.058 174.27 178.393 174.145 177.783 173.895C177.173 173.635 176.643 173.275 176.193 172.815C175.753 172.345 175.408 171.78 175.158 171.12C174.908 170.46 174.783 169.72 174.783 168.9C174.783 168.06 174.908 167.3 175.158 166.62C175.408 165.94 175.753 165.365 176.193 164.895C176.643 164.425 177.173 164.065 177.783 163.815C178.393 163.555 179.058 163.425 179.778 163.425C180.498 163.425 181.163 163.555 181.773 163.815C182.393 164.065 182.923 164.425 183.363 164.895C183.813 165.365 184.163 165.94 184.413 166.62C184.673 167.3 184.803 168.06 184.803 168.9ZM181.938 168.9C181.938 168.32 181.883 167.835 181.773 167.445C181.663 167.055 181.508 166.74 181.308 166.5C181.118 166.26 180.888 166.09 180.618 165.99C180.358 165.88 180.078 165.825 179.778 165.825C179.478 165.825 179.198 165.88 178.938 165.99C178.678 166.09 178.453 166.26 178.263 166.5C178.073 166.74 177.923 167.055 177.813 167.445C177.713 167.835 177.663 168.32 177.663 168.9C177.663 169.46 177.713 169.93 177.813 170.31C177.923 170.69 178.073 170.995 178.263 171.225C178.453 171.455 178.678 171.62 178.938 171.72C179.198 171.82 179.478 171.87 179.778 171.87C180.078 171.87 180.358 171.82 180.618 171.72C180.888 171.62 181.118 171.455 181.308 171.225C181.508 170.995 181.663 170.69 181.773 170.31C181.883 169.93 181.938 169.46 181.938 168.9Z" fill="white"/>
</svg>
